<svg xmlns="http://www.w3.org/2000/svg" xmlns:xlink="http://www.w3.org/1999/xlink" width="300" height="300" viewBox="-5059129.813109792 -5059129.813109792 10118259.626219584 10118259.626219584" preserveAspectRatio="xMinYMin meet"><g transform="matrix(1,0,0,-1,0,0.0)"><path fill-rule="evenodd" fill="#66cc99" stroke="#555555" stroke-width="67455.06417479723" opacity="0.6" d="M 4684379.45658314,-1737559.911468486 L 4664794.635681727,-1790646.8914643484 L 4616322.455950408,-1912143.369542132 L 4564686.479398234,-2032329.360068124 L 4509922.094744256,-2151122.493567842 L 4452066.8347621765,-2268441.3551614345 L 4391160.350557251,-2384205.540361373 L 4327244.3843914075,-2498335.7101776726 L 4260362.741075182,-2610753.6454928694 L 4190561.2579460917,-2721382.3006694997 L 4117887.7734540096,-2830145.8563533304 L 4042392.094375087,-2936969.7714361562 L 3964125.96167667,-3041780.834142553 L 3883143.0150566297,-3144507.2122055716 L 3799498.756181391,-3245078.5020969845 L 3713250.510647864,-3343425.7772783483 L 3624457.3886953397,-3439481.6354398094 L 3533180.2446942907,-3533180.244694282 L 3439481.6354398183,-3624457.3886953313 L 3343425.7772783577,-3713250.5106478552 L 3245078.5020969943,-3799498.7561813826 L 3144507.2122055814,-3883143.0150566217 L 3041780.834142563,-3964125.9616766623 L 2936969.771436166,-4042392.0943750795 L 2830145.85635334,-4117887.773454003 L 2721382.3006695104,-4190561.2579460847 L 2610753.6454928797,-4260362.741075176 L 2498335.7101776833,-4327244.384391402 L 2384205.540361384,-4391160.350557245 L 2268441.3551614457,-4452066.834762171 L 2151122.4935678532,-4509922.094744251 L 2032329.3600681357,-4564686.479398228 L 1912143.3695421442,-4616322.455950404 L 1790646.8914643605,-4664794.635681721 L 1737559.9114684835,-4684379.45658314 L 1667321.5014956943,-4684379.45658314 L 1508528.9775437233,-4684379.45658314 L 1349736.4535917523,-4684379.45658314 L 1190943.9296397818,-4684379.45658314 L 1032151.4056878109,-4684379.45658314 L 873358.8817358399,-4684379.45658314 L 714566.3577838689,-4684379.45658314 L 555773.8338318979,-4684379.45658314 L 396981.30987992696,-4684379.45658314 L 238188.78592795692,-4684379.45658314 L 79396.26197598595,-4684379.45658314 L -79396.26197598502,-4684379.45658314 L -238188.785927956,-4684379.45658314 L -396981.30987992696,-4684379.45658314 L -555773.8338318979,-4684379.45658314 L -714566.3577838689,-4684379.45658314 L -873358.8817358399,-4684379.45658314 L -1032151.4056878109,-4684379.45658314 L -1190943.929639781,-4684379.45658314 L -1349736.4535917519,-4684379.45658314 L -1508528.9775437228,-4684379.45658314 L -1667321.5014956938,-4684379.45658314 L -1737559.9114684858,-4684379.45658314 L -1790646.891464329,-4664794.635681734 L -1912143.3695421128,-4616322.455950417 L -2032329.3600681045,-4564686.479398242 L -2151122.4935678225,-4509922.094744265 L -2268441.3551614163,-4452066.834762186 L -2384205.540361356,-4391160.35055726 L -2498335.7101776567,-4327244.384391417 L -2610753.6454928545,-4260362.741075192 L -2721382.3006694857,-4190561.2579461006 L -2830145.856353318,-4117887.7734540184 L -2936969.7714361446,-4042392.0943750953 L -3041780.834142543,-3964125.9616766777 L -3144507.2122055623,-3883143.015056637 L -3245078.5020969766,-3799498.7561813984 L -3343425.777278341,-3713250.51064787 L -3439481.6354398034,-3624457.3886953457 L -3533180.2446942762,-3533180.244694296 L -3624457.3886953266,-3439481.6354398234 L -3713250.5106478515,-3343425.7772783614 L -3799498.7561813807,-3245078.5020969976 L -3883143.01505662,-3144507.212205584 L -3964125.961676661,-3041780.8341425643 L -4042392.094375079,-2936969.771436167 L -4117887.773454003,-2830145.85635334 L -4190561.2579460857,-2721382.300669509 L -4260362.741075178,-2610753.6454928783 L -4327244.384391404,-2498335.7101776805 L -4391160.350557247,-2384205.54036138 L -4452066.834762174,-2268441.355161441 L -4509922.094744254,-2151122.4935678476 L -4564686.479398231,-2032329.3600681287 L -4616322.455950406,-1912143.369542136 L -4664794.635681726,-1790646.8914643517 L -4684379.45658314,-1737559.9114684865 L -4684379.45658314,-1667321.5014956943 L -4684379.45658314,-1508528.9775437233 L -4684379.45658314,-1349736.4535917523 L -4684379.45658314,-1190943.9296397818 L -4684379.45658314,-1032151.4056878109 L -4684379.45658314,-873358.8817358399 L -4684379.45658314,-714566.3577838689 L -4684379.45658314,-555773.8338318979 L -4684379.45658314,-396981.30987992696 L -4684379.45658314,-238188.78592795692 L -4684379.45658314,-79396.26197598595 L -4684379.45658314,79396.26197598502 L -4684379.45658314,238188.785927956 L -4684379.45658314,396981.30987992696 L -4684379.45658314,555773.8338318979 L -4684379.45658314,714566.3577838689 L -4684379.45658314,873358.8817358399 L -4684379.45658314,1032151.4056878109 L -4684379.45658314,1190943.929639781 L -4684379.45658314,1349736.4535917519 L -4684379.45658314,1508528.9775437228 L -4684379.45658314,1667321.5014956938 L -4684379.45658314,1737559.9114684856 L -4664794.6356817195,1790646.8914643673 L -4616322.455950401,1912143.3695421515 L -4564686.4793982245,2032329.3600681438 L -4509922.094744246,2151122.4935678625 L -4452066.834762165,2268441.3551614555 L -4391160.35055724,2384205.540361395 L -4327244.384391395,2498335.710177695 L -4260362.741075168,2610753.6454928922 L -4190561.2579460763,2721382.300669523 L -4117887.7734539937,2830145.8563533537 L -4042392.0943750693,2936969.7714361805 L -3964125.961676651,3041780.834142578 L -3883143.0150566096,3144507.2122055967 L -3799498.7561813695,3245078.5020970097 L -3713250.510647841,3343425.7772783735 L -3624457.388695315,3439481.635439835 L -3533180.2446942646,3533180.2446943074 L -3439481.6354397913,3624457.3886953574 L -3343425.777278329,3713250.5106478813 L -3245078.5020969636,3799498.7561814087 L -3144507.2122055497,3883143.015056648 L -3041780.8341425294,3964125.9616766875 L -2936969.771436131,4042392.094375105 L -2830145.856353304,4117887.773454028 L -2721382.3006694717,4190561.2579461094 L -2610753.6454928406,4260362.7410752 L -2498335.7101776423,4327244.384391425 L -2384205.540361342,4391160.350557269 L -2268441.3551614014,4452066.834762193 L -2151122.4935678076,4509922.0947442725 L -2032329.3600680884,4564686.479398249 L -1912143.3695420953,4616322.455950424 L -1790646.8914643107,4664794.635681741 L -1737559.9114684847,4684379.45658314 L -1667321.5014956943,4684379.45658314 L -1508528.9775437233,4684379.45658314 L -1349736.4535917523,4684379.45658314 L -1190943.9296397818,4684379.45658314 L -1032151.4056878109,4684379.45658314 L -873358.8817358399,4684379.45658314 L -714566.3577838689,4684379.45658314 L -555773.8338318979,4684379.45658314 L -396981.30987992696,4684379.45658314 L -238188.78592795692,4684379.45658314 L -79396.26197598595,4684379.45658314 L 79396.26197598502,4684379.45658314 L 238188.785927956,4684379.45658314 L 396981.30987992696,4684379.45658314 L 555773.8338318979,4684379.45658314 L 714566.3577838689,4684379.45658314 L 873358.8817358399,4684379.45658314 L 1032151.4056878109,4684379.45658314 L 1190943.929639781,4684379.45658314 L 1349736.4535917519,4684379.45658314 L 1508528.9775437228,4684379.45658314 L 1667321.5014956938,4684379.45658314 L 1737559.9114684851,4684379.45658314 L 1790646.8914644083,4664794.635681704 L 1912143.3695421922,4616322.455950383 L 2032329.360068184,4564686.479398207 L 2151122.493567902,4509922.094744227 L 2268441.3551614946,4452066.834762146 L 2384205.5403614338,4391160.350557218 L 2498335.710177733,4327244.384391373 L 2610753.64549293,4260362.741075146 L 2721382.30066956,4190561.2579460526 L 2830145.8563533905,4117887.7734539686 L 2936969.771436216,4042392.0943750436 L 3041780.8341426128,3964125.9616766237 L 3144507.212205631,3883143.0150565817 L 3245078.5020970437,3799498.756181341 L 3343425.7772784065,3713250.510647811 L 3439481.635439867,3624457.388695285 L 3533180.244694338,3533180.2446942334 L 3624457.388695387,3439481.635439759 L 3713250.5106479106,3343425.777278296 L 3799498.7561814375,3245078.5020969305 L 3883143.0150566753,3144507.2122055152 L 3964125.961676715,3041780.8341424945 L 4042392.0943751307,2936969.7714360957 L 4117887.773454053,2830145.8563532676 L 4190561.2579461336,2721382.3006694354 L 4260362.741075223,2610753.645492803 L 4327244.3843914475,2498335.710177604 L 4391160.350557289,2384205.540361303 L 4452066.834762213,2268441.3551613623 L 4509922.094744291,2151122.493567768 L 4564686.479398267,2032329.3600680481 L 4616322.455950441,1912143.3695420546 L 4664794.635681758,1790646.8914642695 L 4684379.45658314,1737559.9114684865 L 4684379.45658314,1667321.5014956943 L 4684379.45658314,1508528.9775437233 L 4684379.45658314,1349736.4535917523 L 4684379.45658314,1190943.9296397818 L 4684379.45658314,1032151.4056878109 L 4684379.45658314,873358.8817358399 L 4684379.45658314,714566.3577838689 L 4684379.45658314,555773.8338318979 L 4684379.45658314,396981.30987992696 L 4684379.45658314,238188.78592795692 L 4684379.45658314,79396.26197598595 L 4684379.45658314,-79396.26197598502 L 4684379.45658314,-238188.785927956 L 4684379.45658314,-396981.30987992696 L 4684379.45658314,-555773.8338318979 L 4684379.45658314,-714566.3577838689 L 4684379.45658314,-873358.8817358399 L 4684379.45658314,-1032151.4056878109 L 4684379.45658314,-1190943.929639781 L 4684379.45658314,-1349736.4535917519 L 4684379.45658314,-1508528.9775437228 L 4684379.45658314,-1667321.5014956938 L 4684379.45658314,-1737559.911468486 z" /></g></svg>