<svg xmlns="http://www.w3.org/2000/svg" xmlns:xlink="http://www.w3.org/1999/xlink" width="300" height="300" viewBox="-5848354.06395492 -5848354.06395492 11696708.12790984 11696708.12790984" preserveAspectRatio="xMinYMin meet"><g transform="matrix(1,0,0,-1,0,0.0)"><path fill-rule="evenodd" fill="#66cc99" stroke="#555555" stroke-width="77978.0541860656" opacity="0.6" d="M 5415142.651810111,0.0 L 5414881.690450332,-53162.184669038994 L 5414098.8315229975,-106319.2454560708 L 5412794.150481679,-159466.05897293863 L 5410967.773074249,-212597.50281913893 L 5408619.875330767,-265708.456075529 L 5405750.6835465,-318793.79979789176 L 5402360.474260128,-371848.4175103105 L 5398449.574227075,-424867.19569830503 L 5394018.360388029,-477845.0243016835 L 5389067.2598326,-530776.7972070599 L 5383596.749758166,-583657.4127399924 L 5377607.357423875,-636481.774156693 L 5371099.660099823,-689244.7901352631 L 5364074.285011425,-741941.3752664045 L 5356531.909278954,-794566.4505435624 L 5348473.259852282,-847114.9438524509 L 5339899.113440813,-899581.7904599133 L 5330810.296438622,-951961.9335020721 L 5321207.684844811,-1004250.3244717196 L 5311092.204179072,-1056441.9237049043 L 5300464.829392484,-1108531.7008666634 L 5289326.584773549,-1160514.6354358569 L 5277678.543849465,-1212385.717189057 L 5265521.829282661,-1264139.946683443 L 5252857.612762588,-1315772.3357386573 L 5239687.114892794,-1367277.9079175782 L 5226011.605073274,-1418651.6990059586 L 5211832.4013781315,-1469888.7574908866 L 5197150.870428526,-1520984.1450380236 L 5181968.427260972,-1571932.9369675706 L 5166286.535190938,-1622730.2227289195 L 5150106.705671824,-1673371.1063739418 L 5133430.498149273,-1723850.7070288712 L 5116259.519910877,-1774164.1593647306 L 5098595.425931254,-1824306.614066265 L 5080439.918712551,-1874273.2382993258 L 5061794.748120339,-1924059.2161766721 L 5042661.711214967,-1973659.749222134 L 5023042.652078355,-2023070.0568331014 L 5002939.4616362555,-2072285.3767412864 L 4982354.077476005,-2121300.9654717227 L 4961288.483659776,-2170112.0987999495 L 4939744.710533343,-2218714.0722073438 L 4917724.834530401,-2267102.2013345524 L 4895230.977972431,-2315271.822432976 L 4872265.308864144,-2363218.2928142776 L 4848830.040684528,-2410936.9912978467 L 4824927.432173508,-2458423.3186562057 L 4800559.787114242,-2505672.698058288 L 4775729.454111078,-2552680.5755105647 L 4750438.826363189,-2599442.4202959673 L 4724690.341433921,-2645953.725410568 L 4698486.481015838,-2692210.0079979734 L 4671829.770691548,-2738206.8097813935 L 4644722.779690274,-2783939.697493335 L 4617168.120640229,-2829404.263302898 L 4589168.449316801,-2874596.1252405993 L 4560726.464386589,-2919510.9276207266 L 4531844.9071473,-2964144.3414611435 L 4502526.561263531,-3008492.064900527 L 4472774.252498482,-3052549.8236129875 L 4442590.848441594,-3096313.3712200425 L 4411979.258232175,-3139778.4896998866 L 4380942.432279001,-3182940.9897939335 L 4349483.361975956,-3225796.71141059 L 4317605.079413712,-3268341.5240262076 L 4285310.657087493,-3310571.327083197 L 4252603.207600938,-3352482.0503852437 L 4219485.883366105,-3394069.654489606 L 4185961.876299632,-3435330.1310964427 L 4152034.4175150935,-3476259.503435141 L 4117706.777011584,-3516853.826647606 L 4082982.2633585418,-3557109.1881684763 L 4047864.2233768664,-3597021.708102223 L 4012356.0418163445,-3636587.539597103 L 3976461.1410294194,-3675802.869215928 L 3940182.980641338,-3714663.9173036073 L 3903525.0572167058,-3753166.9383514435 L 3866490.9039224815,-3791308.2213581298 L 3829084.090187439,-3829084.0901874257 L 3791308.2213581437,-3866490.903922468 L 3753166.938351458,-3903525.0572166927 L 3714663.9173036213,-3940182.980641324 L 3675802.8692159425,-3976461.1410294054 L 3636587.5395971183,-4012356.041816331 L 3597021.7081022374,-4047864.223376854 L 3557109.1881684912,-4082982.263358529 L 3516853.8266476206,-4117706.7770115715 L 3476259.503435156,-4152034.417515081 L 3435330.1310964585,-4185961.8762996187 L 3394069.654489622,-4219485.883366093 L 3352482.050385259,-4252603.207600926 L 3310571.327083212,-4285310.657087481 L 3268341.5240262235,-4317605.0794137 L 3225796.7114106053,-4349483.361975944 L 3182940.9897939498,-4380942.432278989 L 3139778.489699902,-4411979.258232164 L 3096313.3712200588,-4442590.848441584 L 3052549.823613004,-4472774.252498471 L 3008492.0649005426,-4502526.56126352 L 2964144.34146116,-4531844.907147289 L 2919510.9276207434,-4560726.464386579 L 2874596.125240615,-4589168.44931679 L 2829404.2633029134,-4617168.120640219 L 2783939.697493351,-4644722.779690266 L 2738206.8097814075,-4671829.770691539 L 2692210.007997988,-4698486.481015829 L 2645953.7254105816,-4724690.3414339125 L 2599442.4202959808,-4750438.826363183 L 2552680.5755105778,-4775729.45411107 L 2505672.698058301,-4800559.787114235 L 2458423.3186562187,-4824927.432173502 L 2410936.9912978592,-4848830.040684522 L 2363218.2928142897,-4872265.308864137 L 2315271.822432989,-4895230.977972425 L 2267102.2013345645,-4917724.834530395 L 2218714.072207356,-4939744.710533338 L 2170112.0987999607,-4961288.48365977 L 2121300.965471734,-4982354.077476 L 2072285.3767412975,-5002939.46163625 L 2023070.0568331124,-5023042.65207835 L 1973659.749222145,-5042661.711214963 L 1924059.2161766824,-5061794.748120335 L 1874273.238299336,-5080439.918712547 L 1824306.6140662748,-5098595.425931252 L 1774164.1593647406,-5116259.519910874 L 1723850.7070288807,-5133430.49814927 L 1673371.106373951,-5150106.705671821 L 1622730.222728928,-5166286.535190935 L 1571932.936967579,-5181968.427260969 L 1520984.145038032,-5197150.870428524 L 1469888.7574908948,-5211832.401378129 L 1418651.6990059663,-5226011.605073272 L 1367277.907917586,-5239687.114892791 L 1315772.3357386645,-5252857.612762586 L 1264139.94668345,-5265521.829282659 L 1212385.7171890638,-5277678.543849464 L 1160514.6354358634,-5289326.584773547 L 1108531.7008666694,-5300464.829392483 L 1056441.9237049103,-5311092.204179072 L 1004250.3244717253,-5321207.6848448105 L 951961.9335020774,-5330810.296438621 L 899581.7904599184,-5339899.113440812 L 847114.9438524557,-5348473.259852282 L 794566.450543567,-5356531.909278953 L 741941.3752664085,-5364074.285011425 L 689244.790135267,-5371099.660099822 L 636481.7741566966,-5377607.357423874 L 583657.4127399955,-5383596.749758166 L 530776.7972070626,-5389067.2598326 L 477845.02430168586,-5394018.360388028 L 424867.19569830707,-5398449.574227075 L 371848.4175103121,-5402360.474260128 L 318793.79979789304,-5405750.6835465 L 265708.45607552986,-5408619.875330767 L 212597.50281913945,-5410967.773074249 L 159466.05897293883,-5412794.150481679 L 106319.24545607065,-5414098.8315229975 L 53162.18466903848,-5414881.690450332 L -8.708213549605844e-10,-5415142.651810111 L -53162.18466904023,-5414881.690450332 L -106319.2454560724,-5414098.8315229975 L -159466.05897294058,-5412794.150481679 L -212597.50281914123,-5410967.773074249 L -265708.45607553166,-5408619.875330767 L -318793.7997978948,-5405750.6835465 L -371848.41751031386,-5402360.474260127 L -424867.1956983088,-5398449.574227075 L -477845.0243016876,-5394018.360388028 L -530776.7972070643,-5389067.2598326 L -583657.4127399973,-5383596.749758166 L -636481.7741566984,-5377607.357423874 L -689244.7901352687,-5371099.660099822 L -741941.3752664104,-5364074.285011425 L -794566.4505435686,-5356531.909278953 L -847114.9438524573,-5348473.259852281 L -899581.7904599201,-5339899.113440811 L -951961.9335020792,-5330810.296438621 L -1004250.324471727,-5321207.6848448105 L -1056441.923704912,-5311092.204179071 L -1108531.700866671,-5300464.829392483 L -1160514.635435865,-5289326.584773547 L -1212385.7171890656,-5277678.543849464 L -1264139.9466834515,-5265521.829282658 L -1315772.3357386661,-5252857.612762586 L -1367277.9079175876,-5239687.114892791 L -1418651.6990059682,-5226011.605073272 L -1469888.7574908964,-5211832.401378128 L -1520984.1450380336,-5197150.870428523 L -1571932.9369675808,-5181968.427260969 L -1622730.22272893,-5166286.535190934 L -1673371.1063739525,-5150106.70567182 L -1723850.7070288823,-5133430.498149269 L -1774164.159364742,-5116259.519910873 L -1824306.6140662765,-5098595.425931251 L -1874273.2382993377,-5080439.918712547 L -1924059.2161766842,-5061794.748120335 L -1973659.7492221463,-5042661.7112149615 L -2023070.056833114,-5023042.652078349 L -2072285.3767412992,-5002939.46163625 L -2121300.9654717357,-4982354.0774759995 L -2170112.0987999626,-4961288.48365977 L -2218714.0722073573,-4939744.710533337 L -2267102.201334565,-4917724.834530395 L -2315271.8224329893,-4895230.977972425 L -2363218.2928142906,-4872265.308864137 L -2410936.99129786,-4848830.040684521 L -2458423.318656219,-4824927.432173502 L -2505672.698058302,-4800559.787114235 L -2552680.5755105787,-4775729.454111069 L -2599442.4202959817,-4750438.826363183 L -2645953.7254105825,-4724690.341433912 L -2692210.0079979883,-4698486.481015829 L -2738206.8097814084,-4671829.770691539 L -2783939.6974933515,-4644722.779690266 L -2829404.263302914,-4617168.120640219 L -2874596.125240616,-4589168.44931679 L -2919510.9276207434,-4560726.464386579 L -2964144.341461161,-4531844.907147288 L -3008492.0649005445,-4502526.561263519 L -3052549.8236130057,-4472774.252498469 L -3096313.371220061,-4442590.848441582 L -3139778.4896999053,-4411979.258232161 L -3182940.989793953,-4380942.432278987 L -3225796.711410609,-4349483.361975941 L -3268341.5240262276,-4317605.079413697 L -3310571.3270832165,-4285310.657087477 L -3352482.050385264,-4252603.207600921 L -3394069.6544896276,-4219485.883366088 L -3435330.1310964646,-4185961.876299614 L -3476259.5034351624,-4152034.417515076 L -3516853.8266476276,-4117706.7770115654 L -3557109.188168498,-4082982.2633585227 L -3597021.7081022453,-4047864.2233768464 L -3636587.539597126,-4012356.041816324 L -3675802.869215951,-3976461.141029398 L -3714663.91730363,-3940182.980641316 L -3753166.938351467,-3903525.0572166834 L -3791308.2213581535,-3866490.9039224586 L -3829084.090187449,-3829084.090187416 L -3866490.9039224917,-3791308.2213581195 L -3903525.0572167165,-3753166.938351433 L -3940182.9806413483,-3714663.917303596 L -3976461.14102943,-3675802.869215916 L -4012356.0418163557,-3636587.5395970913 L -4047864.2233768785,-3597021.70810221 L -4082982.263358554,-3557109.1881684624 L -4117706.777011596,-3516853.826647592 L -4152034.417515106,-3476259.5034351265 L -4185961.8762996444,-3435330.131096428 L -4219485.883366118,-3394069.654489591 L -4252603.207600951,-3352482.0503852274 L -4285310.657087506,-3310571.3270831793 L -4317605.079413725,-3268341.5240261895 L -4349483.361975969,-3225796.7114105714 L -4380942.432279014,-3182940.989793915 L -4411979.258232189,-3139778.4896998666 L -4442590.848441609,-3096313.371220023 L -4472774.252498496,-3052549.823612967 L -4502526.561263545,-3008492.0649005054 L -4531844.907147314,-2964144.341461122 L -4560726.464386604,-2919510.927620704 L -4589168.4493168155,-2874596.1252405765 L -4617168.120640243,-2829404.263302874 L -4644722.779690289,-2783939.697493311 L -4671829.770691562,-2738206.8097813674 L -4698486.481015853,-2692210.0079979473 L -4724690.341433935,-2645953.725410541 L -4750438.826363204,-2599442.4202959402 L -4775729.454111092,-2552680.5755105373 L -4800559.787114256,-2505672.69805826 L -4824927.432173523,-2458423.3186561773 L -4848830.040684543,-2410936.991297818 L -4872265.308864158,-2363218.2928142482 L -4895230.977972445,-2315271.8224329464 L -4917724.834530415,-2267102.201334522 L -4939744.710533356,-2218714.072207313 L -4961288.483659789,-2170112.0987999183 L -4982354.077476019,-2121300.965471691 L -5002939.4616362685,-2072285.3767412547 L -5023042.652078368,-2023070.056833069 L -5042661.71121498,-1973659.7492221014 L -5061794.748120352,-1924059.2161766388 L -5080439.918712564,-1874273.2382992923 L -5098595.4259312665,-1824306.614066231 L -5116259.519910889,-1774164.1593646964 L -5133430.498149285,-1723850.7070288365 L -5150106.705671836,-1673371.1063739068 L -5166286.535190949,-1622730.222728884 L -5181968.427260982,-1571932.9369675345 L -5197150.870428537,-1520984.1450379873 L -5211832.401378142,-1469888.75749085 L -5226011.605073284,-1418651.6990059216 L -5239687.114892803,-1367277.9079175408 L -5252857.612762597,-1315772.3357386193 L -5265521.82928267,-1264139.9466834045 L -5277678.543849474,-1212385.7171890184 L -5289326.584773557,-1160514.635435818 L -5300464.829392493,-1108531.700866624 L -5311092.20417908,-1056441.9237048645 L -5321207.684844819,-1004250.3244716795 L -5330810.29643863,-951961.9335020315 L -5339899.113440819,-899581.7904598725 L -5348473.259852288,-847114.9438524097 L -5356531.909278961,-794566.4505435207 L -5364074.285011431,-741941.3752663626 L -5371099.660099829,-689244.7901352207 L -5377607.357423879,-636481.7741566504 L -5383596.749758171,-583657.4127399492 L -5389067.259832605,-530776.7972070163 L -5394018.360388033,-477845.0243016395 L -5398449.574227079,-424867.19569826074 L -5402360.474260131,-371848.4175102657 L -5405750.683546503,-318793.7997978466 L -5408619.8753307685,-265708.4560754834 L -5410967.773074251,-212597.50281909294 L -5412794.15048168,-159466.0589728923 L -5414098.831522998,-106319.24545602409 L -5414881.690450333,-53162.184668991926 L -5415142.651810111,4.743296471780794e-08 L -5414881.690450332,53162.18466908678 L -5414098.831522997,106319.24545611894 L -5412794.150481677,159466.0589729871 L -5410967.773074248,212597.50281918774 L -5408619.875330764,265708.4560755781 L -5405750.6835464975,318793.7997979413 L -5402360.474260124,371848.4175103603 L -5398449.574227072,424867.19569835527 L -5394018.360388025,477845.024301734 L -5389067.2598325955,530776.7972071108 L -5383596.749758161,583657.4127400435 L -5377607.357423868,636481.7741567446 L -5371099.6600998165,689244.7901353148 L -5364074.285011418,741941.3752664565 L -5356531.909278947,794566.4505436147 L -5348473.259852273,847114.9438525033 L -5339899.113440803,899581.790459966 L -5330810.296438613,951961.933502125 L -5321207.684844802,1004250.3244717728 L -5311092.204179062,1056441.9237049576 L -5300464.829392473,1108531.7008667167 L -5289326.584773537,1160514.6354359104 L -5277678.543849453,1212385.7171891108 L -5265521.829282648,1264139.946683497 L -5252857.612762574,1315772.3357387113 L -5239687.114892779,1367277.9079176327 L -5226011.60507326,1418651.6990060133 L -5211832.401378116,1469888.757490941 L -5197150.87042851,1520984.1450380783 L -5181968.427260955,1571932.9369676253 L -5166286.53519092,1622730.2227289744 L -5150106.705671806,1673371.1063739972 L -5133430.498149255,1723850.7070289264 L -5116259.519910857,1774164.159364786 L -5098595.425931235,1824306.6140663202 L -5080439.91871253,1874273.2382993815 L -5061794.748120318,1924059.2161767276 L -5042661.711214945,1973659.7492221897 L -5023042.652078332,2023070.0568331573 L -5002939.461636231,2072285.376741342 L -4982354.077475982,2121300.965471778 L -4961288.483659752,2170112.0988000054 L -4939744.710533318,2218714.0722073996 L -4917724.834530375,2267102.2013346083 L -4895230.977972404,2315271.822433032 L -4872265.308864117,2363218.2928143335 L -4848830.040684501,2410936.9912979025 L -4824927.432173479,2458423.318656262 L -4800559.787114212,2505672.698058344 L -4775729.454111047,2552680.5755106206 L -4750438.826363159,2599442.420296023 L -4724690.341433888,2645953.725410624 L -4698486.481015805,2692210.0079980297 L -4671829.770691515,2738206.80978145 L -4644722.7796902405,2783939.6974933925 L -4617168.120640194,2829404.263302955 L -4589168.449316764,2874596.125240656 L -4560726.464386553,2919510.927620784 L -4531844.907147262,2964144.341461201 L -4502526.561263493,3008492.064900584 L -4472774.252498442,3052549.8236130453 L -4442590.848441554,3096313.3712201 L -4411979.258232134,3139778.4896999444 L -4380942.432278959,3182940.989793991 L -4349483.361975912,3225796.7114106477 L -4317605.079413668,3268341.5240262654 L -4285310.657087448,3310571.3270832547 L -4252603.2076008925,3352482.050385302 L -4219485.883366059,3394069.654489665 L -4185961.8762995843,3435330.1310965014 L -4152034.4175150455,3476259.503435199 L -4117706.7770115347,3516853.826647664 L -4082982.2633584915,3557109.188168534 L -4047864.223376815,3597021.7081022807 L -4012356.041816292,3636587.5395971616 L -3976461.141029366,3675802.8692159858 L -3940182.980641283,3714663.917303665 L -3903525.0572166503,3753166.9383515012 L -3866490.9039224256,3791308.2213581875 L -3829084.0901873824,3829084.0901874825 L -3791308.2213580855,3866490.9039225252 L -3753166.9383513983,3903525.0572167495 L -3714663.9173035612,3940182.9806413813 L -3675802.869215881,3976461.1410294627 L -3636587.5395970554,4012356.041816388 L -3597021.708102174,4047864.2233769097 L -3557109.188168427,4082982.263358585 L -3516853.8266475555,4117706.7770116273 L -3476259.5034350916,4152034.417515135 L -3435330.1310963947,4185961.8762996714 L -3394069.6544895587,4219485.883366143 L -3352482.050385197,4252603.2076009745 L -3310571.3270831513,4285310.657087527 L -3268341.5240261634,4317605.079413746 L -3225796.7114105467,4349483.361975987 L -3182940.9897938916,4380942.432279032 L -3139778.4896998457,4411979.258232204 L -3096313.371220003,4442590.848441622 L -3052549.8236129493,4472774.252498508 L -3008492.0649004895,4502526.561263557 L -2964144.341461108,4531844.907147324 L -2919510.9276206926,4560726.464386611 L -2874596.125240566,4589168.449316821 L -2829404.263302866,4617168.120640248 L -2783939.6974933054,4644722.779690293 L -2738206.8097813637,4671829.770691565 L -2692210.0079979454,4698486.481015854 L -2645953.7254105415,4724690.341433935 L -2599442.4202959426,4750438.826363203 L -2552680.5755105414,4775729.45411109 L -2505672.6980582667,4800559.787114253 L -2458423.318656186,4824927.432173518 L -2410936.991297829,4848830.040684537 L -2363218.2928142613,4872265.308864151 L -2315271.8224329622,4895230.977972438 L -2267102.20133454,4917724.834530408 L -2218714.0722073335,4939744.710533348 L -2170112.0987999407,4961288.48365978 L -2121300.9654717157,4982354.077476008 L -2072285.3767412812,5002939.461636257 L -2023070.0568330984,5023042.652078356 L -1973659.749222133,5042661.711214967 L -1924059.216176673,5061794.748120339 L -1874273.2382993288,5080439.918712551 L -1824306.6140662697,5098595.4259312535 L -1774164.1593647376,5116259.519910874 L -1723850.70702888,5133430.49814927 L -1673371.106373953,5150106.70567182 L -1622730.2227289323,5166286.535190934 L -1571932.9369675857,5181968.427260967 L -1520984.1450380408,5197150.870428521 L -1469888.757490906,5211832.401378126 L -1418651.6990059798,5226011.605073269 L -1367277.9079176018,5239687.114892787 L -1315772.3357386827,5252857.612762582 L -1264139.9466834704,5265521.829282654 L -1212385.7171890868,5277678.543849458 L -1160514.6354358888,5289326.584773542 L -1108531.7008666971,5300464.829392477 L -1056441.9237049404,5311092.204179065 L -1004250.3244717577,5321207.684844805 L -951961.9335021124,5330810.296438616 L -899581.7904599558,5339899.113440805 L -847114.9438524955,5348473.259852275 L -794566.4505436091,5356531.909278947 L -741941.3752664534,5364074.285011418 L -689244.7901353142,5371099.6600998165 L -636481.7741567462,5377607.357423868 L -583657.4127400474,5383596.749758161 L -530776.7972071171,5389067.259832595 L -477845.02430174284,5394018.360388024 L -424867.19569836656,5398449.57422707 L -371848.417510374,5402360.474260123 L -318793.7997979573,5405750.683546497 L -265708.4560755966,5408619.875330763 L -212597.50281920863,5410967.773074247 L -159466.0589730104,5412794.150481677 L -106319.24545614464,5414098.831522997 L -53162.1846691149,5414881.690450332 L -7.794855105428702e-08,5415142.651810111 L 53162.18466895901,5414881.690450333 L 106319.24545598877,5414098.831522999 L 159466.05897285457,5412794.150481681 L 212597.50281905284,5410967.7730742525 L 265708.4560754409,5408619.87533077 L 318793.7997978017,5405750.683546506 L 371848.4175102184,5402360.474260134 L 424867.19569821114,5398449.574227083 L 477845.0243015876,5394018.360388038 L 530776.797206962,5389067.25983261 L 583657.4127398925,5383596.749758177 L 636481.7741565914,5377607.357423887 L 689244.7901351595,5371099.660099836 L 741941.375266299,5364074.28501144 L 794566.450543455,5356531.90927897 L 847114.9438523415,5348473.2598522995 L 899581.790459802,5339899.113440831 L 951961.933501959,5330810.296438643 L 1004250.3244716047,5321207.684844834 L 1056441.9237047874,5311092.204179095 L 1108531.7008665446,5300464.82939251 L 1160514.6354357363,5289326.584773576 L 1212385.7171889348,5277678.543849493 L 1264139.9466833188,5265521.829282691 L 1315772.3357385315,5252857.61276262 L 1367277.9079174509,5239687.114892826 L 1418651.6990058296,5226011.6050733095 L 1469888.7574907558,5211832.401378168 L 1520984.145037891,5197150.870428565 L 1571932.9369674362,5181968.427261013 L 1622730.2227287835,5166286.535190981 L 1673371.1063738046,5150106.705671868 L 1723850.7070287322,5133430.49814932 L 1774164.1593645902,5116259.519910925 L 1824306.614066123,5098595.425931306 L 1874273.2382991824,5080439.918712604 L 1924059.2161765273,5061794.748120395 L 1973659.749221988,5042661.711215025 L 2023070.0568329538,5023042.652078414 L 2072285.3767411374,5002939.461636316 L 2121300.9654715722,4982354.077476069 L 2170112.0987997977,4961288.483659842 L 2218714.072207191,4939744.710533411 L 2267102.2013343982,4917724.834530472 L 2315271.822432821,4895230.977972505 L 2363218.292814121,4872265.308864219 L 2410936.9912976893,4848830.040684607 L 2458423.3186560473,4824927.432173589 L 2505672.6980581284,4800559.787114325 L 2552680.575510404,4775729.4541111635 L 2599442.4202958057,4750438.826363279 L 2645953.7254104055,4724690.341434011 L 2692210.0079978104,4698486.481015931 L 2738206.809781229,4671829.770691644 L 2783939.6974931713,4644722.779690373 L 2829404.263302733,4617168.12064033 L 2874596.125240434,4589168.449316904 L 2919510.927620561,4560726.464386696 L 2964144.3414609777,4531844.907147408 L 3008492.06490036,4502526.561263643 L 3052549.8236128204,4472774.252498596 L 3096313.3712198753,4442590.848441712 L 3139778.489699719,4411979.258232295 L 3182940.989793766,4380942.432279123 L 3225796.7114104214,4349483.361976081 L 3268341.5240260386,4317605.07941384 L 3310571.327083028,4285310.657087623 L 3352482.0503850747,4252603.207601071 L 3394069.6544894376,4219485.883366241 L 3435330.1310962737,4185961.8762997705 L 3476259.503434972,4152034.4175152355 L 3516853.826647437,4117706.7770117284 L 3557109.1881683073,4082982.263358689 L 3597021.708102054,4047864.2233770164 L 3636587.539596935,4012356.041816497 L 3675802.8692157594,3976461.141029575 L 3714663.917303439,3940182.980641496 L 3753166.938351276,3903525.0572168673 L 3791308.221357962,3866490.9039226463 L 3829084.0901872586,3829084.0901876064 L 3866490.903922301,3791308.2213583146 L 3903525.057216526,3753166.938351631 L 3940182.9806411583,3714663.9173037973 L 3976461.14102924,3675802.8692161213 L 4012356.041816166,3636587.5395973 L 4047864.223376689,3597021.7081024228 L 4082982.2633583653,3557109.188168679 L 4117706.7770114085,3516853.8266478116 L 4152034.4175149184,3476259.50343535 L 4185961.876299457,3435330.131096655 L 4219485.883365932,3394069.6544898218 L 4252603.207600766,3352482.050385462 L 4285310.657087322,3310571.327083418 L 4317605.079413542,3268341.524026432 L 4349483.361975786,3225796.711410817 L 4380942.432278833,3182940.9897941644 L 4411979.25823201,3139778.4897001204 L 4442590.84844143,3096313.3712202795 L 4472774.252498318,3052549.8236132273 L 4502526.561263368,3008492.06490077 L 4531844.907147139,2964144.3414613903 L 4560726.46438643,2919510.927620976 L 4589168.449316642,2874596.1252408517 L 4617168.120640072,2829404.263303153 L 4644722.779690119,2783939.697493594 L 4671829.770691395,2738206.8097816547 L 4698486.481015686,2692210.007998238 L 4724690.34143377,2645953.7254108354 L 4750438.826363042,2599442.4202962383 L 4775729.454110931,2552680.575510839 L 4800559.787114097,2505672.6980585656 L 4824927.432173366,2458423.3186564865 L 4848830.040684387,2410936.9912981307 L 4872265.308864005,2363218.2928145644 L 4895230.977972293,2315271.822433267 L 4917724.834530266,2267102.2013348457 L 4939744.71053321,2218714.072207641 L 4961288.483659645,2170112.0988002494 L 4982354.077475877,2121300.9654720253 L 5002939.461636128,2072285.3767415928 L 5023042.65207823,2023070.0568334109 L 5042661.711214845,1973659.749222447 L 5061794.7481202185,1924059.216176988 L 5080439.918712433,1874273.238299645 L 5098595.42593114,1824306.6140665873 L 5116259.519910764,1774164.1593650563 L 5133430.498149163,1723850.7070291997 L 5150106.7056717165,1673371.1063742733 L 5166286.535190833,1622730.222729254 L 5181968.427260869,1571932.936967908 L 5197150.870428427,1520984.1450383642 L 5211832.401378034,1469888.7574912303 L 5226011.605073181,1418651.699006305 L 5239687.114892703,1367277.907917928 L 5252857.6127625,1315772.3357390095 L 5265521.829282575,1264139.946683798 L 5277678.5438493835,1212385.7171894151 L 5289326.58477347,1160514.635436218 L 5300464.829392408,1108531.700867027 L 5311092.204178999,1056441.923705271 L 5321207.6848447425,1004250.3244720891 L 5330810.296438556,951961.9335024441 L 5339899.113440749,899581.7904602882 L 5348473.259852222,847114.9438528283 L 5356531.909278898,794566.4505439425 L 5364074.2850113725,741941.3752667871 L 5371099.660099774,689244.7901356483 L 5377607.357423829,636481.7741570808 L 5383596.749758124,583657.4127403826 L 5389067.259832561,530776.7972074525 L 5394018.360387994,477845.0243020785 L 5398449.574227044,424867.1956987025 L 5402360.4742601,371848.4175107102 L 5405750.683546477,318793.79979829374 L 5408619.875330746,265708.4560759332 L 5410967.773074234,212597.5028195454 L 5412794.150481666,159466.05897334727 L 5414098.83152299,106319.24545648159 L 5414881.690450328,53162.18466945188 L 5415142.651810111,4.1495303191554174e-07 L 5415142.651810111,0.0 z" /></g></svg>