<svg xmlns="http://www.w3.org/2000/svg" xmlns:xlink="http://www.w3.org/1999/xlink" width="300" height="300" viewBox="-5059129.813109792 -5059129.813109792 10118259.626219584 10118259.626219584" preserveAspectRatio="xMinYMin meet"><g transform="matrix(1,0,0,-1,0,0.0)"><path fill-rule="evenodd" fill="#66cc99" stroke="#555555" stroke-width="67455.06417479723" opacity="0.6" d="M -4684379.45658314,-4684379.45658314 L -4684379.45658314,-4525586.932631169 L -4684379.45658314,-4366794.4086791985 L -4684379.45658314,-4208001.8847272275 L -4684379.45658314,-4049209.360775257 L -4684379.45658314,-3890416.836823286 L -4684379.45658314,-3731624.3128713155 L -4684379.45658314,-3572831.7889193445 L -4684379.45658314,-3414039.2649673736 L -4684379.45658314,-3255246.7410154026 L -4684379.45658314,-3096454.2170634316 L -4684379.45658314,-2937661.693111461 L -4684379.45658314,-2778869.16915949 L -4684379.45658314,-2620076.645207519 L -4684379.45658314,-2461284.1212555487 L -4684379.45658314,-2302491.5973035777 L -4684379.45658314,-2143699.0733516067 L -4684379.45658314,-1984906.5493996358 L -4684379.45658314,-1826114.0254476648 L -4684379.45658314,-1667321.5014956943 L -4684379.45658314,-1508528.9775437233 L -4684379.45658314,-1349736.4535917523 L -4684379.45658314,-1190943.9296397818 L -4684379.45658314,-1032151.4056878109 L -4684379.45658314,-873358.8817358399 L -4684379.45658314,-714566.3577838689 L -4684379.45658314,-555773.8338318979 L -4684379.45658314,-396981.30987992696 L -4684379.45658314,-238188.78592795692 L -4684379.45658314,-79396.26197598595 L -4684379.45658314,79396.26197598502 L -4684379.45658314,238188.785927956 L -4684379.45658314,396981.30987992696 L -4684379.45658314,555773.8338318979 L -4684379.45658314,714566.3577838689 L -4684379.45658314,873358.8817358399 L -4684379.45658314,1032151.4056878109 L -4684379.45658314,1190943.929639781 L -4684379.45658314,1349736.4535917519 L -4684379.45658314,1508528.9775437228 L -4684379.45658314,1667321.5014956938 L -4684379.45658314,1826114.0254476648 L -4684379.45658314,1984906.5493996358 L -4684379.45658314,2143699.0733516067 L -4684379.45658314,2302491.597303577 L -4684379.45658314,2461284.1212555477 L -4684379.45658314,2620076.6452075187 L -4684379.45658314,2778869.1691594897 L -4684379.45658314,2937661.6931114607 L -4684379.45658314,3096454.2170634316 L -4684379.45658314,3255246.7410154026 L -4684379.45658314,3414039.2649673736 L -4684379.45658314,3572831.7889193445 L -4684379.45658314,3731624.3128713146 L -4684379.45658314,3890416.8368232865 L -4684379.45658314,4049209.3607752565 L -4684379.45658314,4208001.884727227 L -4684379.45658314,4366794.4086791985 L -4684379.45658314,4525586.9326311685 L -4684379.45658314,4684379.45658314 L -4684379.45658314,4684379.45658314 L -4525586.932631169,4684379.45658314 L -4366794.4086791985,4684379.45658314 L -4208001.8847272275,4684379.45658314 L -4049209.360775257,4684379.45658314 L -3890416.836823286,4684379.45658314 L -3731624.3128713155,4684379.45658314 L -3572831.7889193445,4684379.45658314 L -3414039.2649673736,4684379.45658314 L -3255246.7410154026,4684379.45658314 L -3096454.2170634316,4684379.45658314 L -2937661.693111461,4684379.45658314 L -2778869.16915949,4684379.45658314 L -2620076.645207519,4684379.45658314 L -2461284.1212555487,4684379.45658314 L -2302491.5973035777,4684379.45658314 L -2143699.0733516067,4684379.45658314 L -1984906.5493996358,4684379.45658314 L -1826114.0254476648,4684379.45658314 L -1667321.5014956943,4684379.45658314 L -1508528.9775437233,4684379.45658314 L -1349736.4535917523,4684379.45658314 L -1190943.9296397818,4684379.45658314 L -1032151.4056878109,4684379.45658314 L -873358.8817358399,4684379.45658314 L -714566.3577838689,4684379.45658314 L -555773.8338318979,4684379.45658314 L -396981.30987992696,4684379.45658314 L -238188.78592795692,4684379.45658314 L -79396.26197598595,4684379.45658314 L 79396.26197598502,4684379.45658314 L 238188.785927956,4684379.45658314 L 396981.30987992696,4684379.45658314 L 555773.8338318979,4684379.45658314 L 714566.3577838689,4684379.45658314 L 873358.8817358399,4684379.45658314 L 1032151.4056878109,4684379.45658314 L 1190943.929639781,4684379.45658314 L 1349736.4535917519,4684379.45658314 L 1508528.9775437228,4684379.45658314 L 1667321.5014956938,4684379.45658314 L 1826114.0254476648,4684379.45658314 L 1984906.5493996358,4684379.45658314 L 2143699.0733516067,4684379.45658314 L 2302491.597303577,4684379.45658314 L 2461284.1212555477,4684379.45658314 L 2620076.6452075187,4684379.45658314 L 2778869.1691594897,4684379.45658314 L 2937661.6931114607,4684379.45658314 L 3096454.2170634316,4684379.45658314 L 3255246.7410154026,4684379.45658314 L 3414039.2649673736,4684379.45658314 L 3572831.7889193445,4684379.45658314 L 3731624.3128713146,4684379.45658314 L 3890416.8368232865,4684379.45658314 L 4049209.3607752565,4684379.45658314 L 4208001.884727227,4684379.45658314 L 4366794.4086791985,4684379.45658314 L 4525586.9326311685,4684379.45658314 L 4684379.45658314,4684379.45658314 L 4684379.45658314,4684379.45658314 L 4684379.45658314,4525586.932631169 L 4684379.45658314,4366794.4086791985 L 4684379.45658314,4208001.8847272275 L 4684379.45658314,4049209.360775257 L 4684379.45658314,3890416.836823286 L 4684379.45658314,3731624.3128713155 L 4684379.45658314,3572831.7889193445 L 4684379.45658314,3414039.2649673736 L 4684379.45658314,3255246.7410154026 L 4684379.45658314,3096454.2170634316 L 4684379.45658314,2937661.693111461 L 4684379.45658314,2778869.16915949 L 4684379.45658314,2620076.645207519 L 4684379.45658314,2461284.1212555487 L 4684379.45658314,2302491.5973035777 L 4684379.45658314,2143699.0733516067 L 4684379.45658314,1984906.5493996358 L 4684379.45658314,1826114.0254476648 L 4684379.45658314,1667321.5014956943 L 4684379.45658314,1508528.9775437233 L 4684379.45658314,1349736.4535917523 L 4684379.45658314,1190943.9296397818 L 4684379.45658314,1032151.4056878109 L 4684379.45658314,873358.8817358399 L 4684379.45658314,714566.3577838689 L 4684379.45658314,555773.8338318979 L 4684379.45658314,396981.30987992696 L 4684379.45658314,238188.78592795692 L 4684379.45658314,79396.26197598595 L 4684379.45658314,-79396.26197598502 L 4684379.45658314,-238188.785927956 L 4684379.45658314,-396981.30987992696 L 4684379.45658314,-555773.8338318979 L 4684379.45658314,-714566.3577838689 L 4684379.45658314,-873358.8817358399 L 4684379.45658314,-1032151.4056878109 L 4684379.45658314,-1190943.929639781 L 4684379.45658314,-1349736.4535917519 L 4684379.45658314,-1508528.9775437228 L 4684379.45658314,-1667321.5014956938 L 4684379.45658314,-1826114.0254476648 L 4684379.45658314,-1984906.5493996358 L 4684379.45658314,-2143699.0733516067 L 4684379.45658314,-2302491.597303577 L 4684379.45658314,-2461284.1212555477 L 4684379.45658314,-2620076.6452075187 L 4684379.45658314,-2778869.1691594897 L 4684379.45658314,-2937661.6931114607 L 4684379.45658314,-3096454.2170634316 L 4684379.45658314,-3255246.7410154026 L 4684379.45658314,-3414039.2649673736 L 4684379.45658314,-3572831.7889193445 L 4684379.45658314,-3731624.3128713146 L 4684379.45658314,-3890416.8368232865 L 4684379.45658314,-4049209.3607752565 L 4684379.45658314,-4208001.884727227 L 4684379.45658314,-4366794.4086791985 L 4684379.45658314,-4525586.9326311685 L 4684379.45658314,-4684379.45658314 L 4684379.45658314,-4684379.45658314 L 4525586.932631169,-4684379.45658314 L 4366794.4086791985,-4684379.45658314 L 4208001.8847272275,-4684379.45658314 L 4049209.360775257,-4684379.45658314 L 3890416.836823286,-4684379.45658314 L 3731624.3128713155,-4684379.45658314 L 3572831.7889193445,-4684379.45658314 L 3414039.2649673736,-4684379.45658314 L 3255246.7410154026,-4684379.45658314 L 3096454.2170634316,-4684379.45658314 L 2937661.693111461,-4684379.45658314 L 2778869.16915949,-4684379.45658314 L 2620076.645207519,-4684379.45658314 L 2461284.1212555487,-4684379.45658314 L 2302491.5973035777,-4684379.45658314 L 2143699.0733516067,-4684379.45658314 L 1984906.5493996358,-4684379.45658314 L 1826114.0254476648,-4684379.45658314 L 1667321.5014956943,-4684379.45658314 L 1508528.9775437233,-4684379.45658314 L 1349736.4535917523,-4684379.45658314 L 1190943.9296397818,-4684379.45658314 L 1032151.4056878109,-4684379.45658314 L 873358.8817358399,-4684379.45658314 L 714566.3577838689,-4684379.45658314 L 555773.8338318979,-4684379.45658314 L 396981.30987992696,-4684379.45658314 L 238188.78592795692,-4684379.45658314 L 79396.26197598595,-4684379.45658314 L -79396.26197598502,-4684379.45658314 L -238188.785927956,-4684379.45658314 L -396981.30987992696,-4684379.45658314 L -555773.8338318979,-4684379.45658314 L -714566.3577838689,-4684379.45658314 L -873358.8817358399,-4684379.45658314 L -1032151.4056878109,-4684379.45658314 L -1190943.929639781,-4684379.45658314 L -1349736.4535917519,-4684379.45658314 L -1508528.9775437228,-4684379.45658314 L -1667321.5014956938,-4684379.45658314 L -1826114.0254476648,-4684379.45658314 L -1984906.5493996358,-4684379.45658314 L -2143699.0733516067,-4684379.45658314 L -2302491.597303577,-4684379.45658314 L -2461284.1212555477,-4684379.45658314 L -2620076.6452075187,-4684379.45658314 L -2778869.1691594897,-4684379.45658314 L -2937661.6931114607,-4684379.45658314 L -3096454.2170634316,-4684379.45658314 L -3255246.7410154026,-4684379.45658314 L -3414039.2649673736,-4684379.45658314 L -3572831.7889193445,-4684379.45658314 L -3731624.3128713146,-4684379.45658314 L -3890416.8368232865,-4684379.45658314 L -4049209.3607752565,-4684379.45658314 L -4208001.884727227,-4684379.45658314 L -4366794.4086791985,-4684379.45658314 L -4525586.9326311685,-4684379.45658314 L -4684379.45658314,-4684379.45658314 z" /></g></svg>