<svg xmlns="http://www.w3.org/2000/svg" xmlns:xlink="http://www.w3.org/1999/xlink" width="300" height="300" viewBox="-5396405.133983778 -5396405.133983778 10792810.267967556 10792810.267967556" preserveAspectRatio="xMinYMin meet"><g transform="matrix(1,0,0,-1,0,0.0)"><path fill-rule="evenodd" fill="#66cc99" stroke="#555555" stroke-width="71952.06845311704" opacity="0.6" d="M 4996671.42035535,0.0 L 4994959.185854247,-130797.60948206898 L 4989823.655830938,-261505.57681608532 L 4981268.349921177,-392034.3212902469 L 4969299.131504285,-522294.3850231475 L 4953924.20368469,-652196.49427374 L 4935154.103669926,-781651.6206250989 L 4913001.6955489535,-910571.0420000512 L 4887482.161475763,-1038866.403466855 L 4858612.991264277,-1166449.7777932575 L 4826413.970401714,-1293233.7257074264 L 4790907.166488594,-1419131.3558244621 L 4752116.914114716,-1544056.3841974083 L 4710069.798181441,-1667923.193451963 L 4664794.635681727,-1790646.8914643484 L 4616322.455950408,-1912143.369542132 L 4564686.479398234,-2032329.360068124 L 4509922.094744256,-2151122.493567842 L 4452066.8347621765,-2268441.3551614345 L 4391160.350557251,-2384205.540361373 L 4327244.3843914075,-2498335.7101776726 L 4260362.741075182,-2610753.6454928694 L 4190561.2579460917,-2721382.3006694997 L 4117887.7734540096,-2830145.8563533304 L 4042392.094375087,-2936969.7714361562 L 3964125.96167667,-3041780.834142553 L 3883143.0150566297,-3144507.2122055716 L 3799498.756181391,-3245078.5020969845 L 3713250.510647864,-3343425.7772783483 L 3624457.3886953397,-3439481.6354398094 L 3533180.2446942907,-3533180.244694282 L 3439481.6354398183,-3624457.3886953313 L 3343425.7772783577,-3713250.5106478552 L 3245078.5020969943,-3799498.7561813826 L 3144507.2122055814,-3883143.0150566217 L 3041780.834142563,-3964125.9616766623 L 2936969.771436166,-4042392.0943750795 L 2830145.85635334,-4117887.773454003 L 2721382.3006695104,-4190561.2579460847 L 2610753.6454928797,-4260362.741075176 L 2498335.7101776833,-4327244.384391402 L 2384205.540361384,-4391160.350557245 L 2268441.3551614457,-4452066.834762171 L 2151122.4935678532,-4509922.094744251 L 2032329.3600681357,-4564686.479398228 L 1912143.3695421442,-4616322.455950404 L 1790646.8914643605,-4664794.635681721 L 1667923.193451976,-4710069.798181435 L 1544056.3841974214,-4752116.914114712 L 1419131.3558244756,-4790907.166488591 L 1293233.7257074404,-4826413.970401711 L 1166449.7777932715,-4858612.991264274 L 1038866.4034668695,-4887482.161475759 L 910571.042000066,-4913001.695548951 L 781651.6206251143,-4935154.103669923 L 652196.4942737555,-4953924.203684689 L 522294.38502316346,-4969299.131504283 L 392034.32129026315,-4981268.349921175 L 261505.57681610176,-4989823.655830938 L 130797.60948208568,-4994959.185854247 L 1.6948216855161443e-08,-4996671.42035535 L -130797.60948205179,-4994959.185854248 L -261505.5768160679,-4989823.655830939 L -392034.32129022933,-4981268.349921178 L -522294.3850231297,-4969299.131504287 L -652196.4942737219,-4953924.203684693 L -781651.6206250807,-4935154.103669928 L -910571.0420000327,-4913001.695548956 L -1038866.4034668363,-4887482.161475766 L -1166449.7777932386,-4858612.991264282 L -1293233.7257074076,-4826413.970401719 L -1419131.3558244433,-4790907.1664886 L -1544056.3841973892,-4752116.914114722 L -1667923.1934519438,-4710069.798181447 L -1790646.891464329,-4664794.635681734 L -1912143.3695421128,-4616322.455950417 L -2032329.3600681045,-4564686.479398242 L -2151122.4935678225,-4509922.094744265 L -2268441.3551614163,-4452066.834762186 L -2384205.540361356,-4391160.35055726 L -2498335.7101776567,-4327244.384391417 L -2610753.6454928545,-4260362.741075192 L -2721382.3006694857,-4190561.2579461006 L -2830145.856353318,-4117887.7734540184 L -2936969.7714361446,-4042392.0943750953 L -3041780.834142543,-3964125.9616766777 L -3144507.2122055623,-3883143.015056637 L -3245078.5020969766,-3799498.7561813984 L -3343425.777278341,-3713250.51064787 L -3439481.6354398034,-3624457.3886953457 L -3533180.2446942762,-3533180.244694296 L -3624457.3886953266,-3439481.6354398234 L -3713250.5106478515,-3343425.7772783614 L -3799498.7561813807,-3245078.5020969976 L -3883143.01505662,-3144507.212205584 L -3964125.961676661,-3041780.8341425643 L -4042392.094375079,-2936969.771436167 L -4117887.773454003,-2830145.85635334 L -4190561.2579460857,-2721382.300669509 L -4260362.741075178,-2610753.6454928783 L -4327244.384391404,-2498335.7101776805 L -4391160.350557247,-2384205.54036138 L -4452066.834762174,-2268441.355161441 L -4509922.094744254,-2151122.4935678476 L -4564686.479398231,-2032329.3600681287 L -4616322.455950406,-1912143.369542136 L -4664794.635681726,-1790646.8914643517 L -4710069.79818144,-1667923.1934519657 L -4752116.9141147155,-1544056.3841974102 L -4790907.166488594,-1419131.355824463 L -4826413.970401714,-1293233.725707427 L -4858612.991264277,-1166449.7777932568 L -4887482.161475763,-1038866.4034668535 L -4913001.6955489535,-910571.0420000489 L -4935154.1036699265,-781651.6206250959 L -4953924.20368469,-652196.494273736 L -4969299.131504285,-522294.3850231428 L -4981268.349921177,-392034.3212902413 L -4989823.655830939,-261505.5768160788 L -4994959.185854248,-130797.6094820616 L -4996671.42035535,8.263955685651066e-09 L -4994959.185854247,130797.60948207811 L -4989823.655830938,261505.5768160953 L -4981268.349921176,392034.3212902578 L -4969299.131504283,522294.38502315927 L -4953924.203684689,652196.4942737524 L -4935154.103669924,781651.6206251122 L -4913001.695548951,910571.0420000652 L -4887482.161475759,1038866.4034668697 L -4858612.991264273,1166449.7777932729 L -4826413.970401709,1293233.725707443 L -4790907.16648859,1419131.355824479 L -4752116.914114711,1544056.3841974258 L -4710069.798181434,1667923.1934519813 L -4664794.6356817195,1790646.8914643673 L -4616322.455950401,1912143.3695421515 L -4564686.4793982245,2032329.3600681438 L -4509922.094744246,2151122.4935678625 L -4452066.834762165,2268441.3551614555 L -4391160.35055724,2384205.540361395 L -4327244.384391395,2498335.710177695 L -4260362.741075168,2610753.6454928922 L -4190561.2579460763,2721382.300669523 L -4117887.7734539937,2830145.8563533537 L -4042392.0943750693,2936969.7714361805 L -3964125.961676651,3041780.834142578 L -3883143.0150566096,3144507.2122055967 L -3799498.7561813695,3245078.5020970097 L -3713250.510647841,3343425.7772783735 L -3624457.388695315,3439481.635439835 L -3533180.2446942646,3533180.2446943074 L -3439481.6354397913,3624457.3886953574 L -3343425.777278329,3713250.5106478813 L -3245078.5020969636,3799498.7561814087 L -3144507.2122055497,3883143.015056648 L -3041780.8341425294,3964125.9616766875 L -2936969.771436131,4042392.094375105 L -2830145.856353304,4117887.773454028 L -2721382.3006694717,4190561.2579461094 L -2610753.6454928406,4260362.7410752 L -2498335.7101776423,4327244.384391425 L -2384205.540361342,4391160.350557269 L -2268441.3551614014,4452066.834762193 L -2151122.4935678076,4509922.0947442725 L -2032329.3600680884,4564686.479398249 L -1912143.3695420953,4616322.455950424 L -1790646.8914643107,4664794.635681741 L -1667923.1934519242,4710069.798181454 L -1544056.3841973683,4752116.9141147295 L -1419131.355824421,4790907.1664886065 L -1293233.7257073843,4826413.970401726 L -1166449.777793214,4858612.991264288 L -1038866.4034668105,4887482.161475772 L -910571.0420000056,4913001.695548962 L -781651.6206250524,4935154.103669933 L -652196.4942736924,4953924.203684697 L -522294.38502309896,4969299.13150429 L -392034.3212901974,4981268.349921181 L -261505.57681603482,4989823.655830941 L -130797.60948201752,4994959.185854249 L 5.233735506150455e-08,4996671.42035535 L 130797.60948212216,4994959.185854246 L 261505.5768161393,4989823.655830936 L 392034.32129030174,4981268.3499211725 L 522294.38502320304,4969299.13150428 L 652196.4942737961,4953924.203684683 L 781651.6206251557,4935154.103669916 L 910571.0420001085,4913001.695548942 L 1038866.4034669128,4887482.161475751 L 1166449.7777933157,4858612.991264263 L 1293233.7257074853,4826413.970401699 L 1419131.355824521,4790907.166488577 L 1544056.3841974677,4752116.914114697 L 1667923.193452023,4710069.798181419 L 1790646.8914644083,4664794.635681704 L 1912143.3695421922,4616322.455950383 L 2032329.360068184,4564686.479398207 L 2151122.493567902,4509922.094744227 L 2268441.3551614946,4452066.834762146 L 2384205.5403614338,4391160.350557218 L 2498335.710177733,4327244.384391373 L 2610753.64549293,4260362.741075146 L 2721382.30066956,4190561.2579460526 L 2830145.8563533905,4117887.7734539686 L 2936969.771436216,4042392.0943750436 L 3041780.8341426128,3964125.9616766237 L 3144507.212205631,3883143.0150565817 L 3245078.5020970437,3799498.756181341 L 3343425.7772784065,3713250.510647811 L 3439481.635439867,3624457.388695285 L 3533180.244694338,3533180.2446942334 L 3624457.388695387,3439481.635439759 L 3713250.5106479106,3343425.777278296 L 3799498.7561814375,3245078.5020969305 L 3883143.0150566753,3144507.2122055152 L 3964125.961676715,3041780.8341424945 L 4042392.0943751307,2936969.7714360957 L 4117887.773454053,2830145.8563532676 L 4190561.2579461336,2721382.3006694354 L 4260362.741075223,2610753.645492803 L 4327244.3843914475,2498335.710177604 L 4391160.350557289,2384205.540361303 L 4452066.834762213,2268441.3551613623 L 4509922.094744291,2151122.493567768 L 4564686.479398267,2032329.3600680481 L 4616322.455950441,1912143.3695420546 L 4664794.635681758,1790646.8914642695 L 4710069.798181469,1667923.1934518826 L 4752116.914114743,1544056.3841973264 L 4790907.166488619,1419131.3558243786 L 4826413.970401737,1293233.7257073417 L 4858612.991264298,1166449.777793171 L 4887482.16147578,1038866.4034667673 L 4913001.69554897,910571.0419999622 L 4935154.10366994,781651.6206250088 L 4953924.2036847025,652196.4942736487 L 4969299.131504294,522294.3850230551 L 4981268.349921184,392034.3212901535 L 4989823.655830944,261505.5768159908 L 4994959.18585425,130797.60948197347 L 4996671.42035535,0.0 z" /></g></svg>