<svg xmlns="http://www.w3.org/2000/svg" xmlns:xlink="http://www.w3.org/1999/xlink" width="300" height="300" viewBox="-5848354.06395492 -5848354.06395492 11696708.12790984 11696708.12790984" preserveAspectRatio="xMinYMin meet"><g transform="matrix(1,0,0,-1,0,0.0)"><path fill-rule="evenodd" fill="#66cc99" stroke="#555555" stroke-width="77978.0541860656" opacity="0.6" d="M 5415142.651810111,0.0 L 5413287.017669541,-141751.90927619225 L 5407721.38700678,-283406.6688744325 L 5398449.574227075,-424867.19569830515 L 5385477.9337677695,-566036.5397688361 L 5368815.355743283,-706817.9506691657 L 5348473.259852282,-847114.9438524509 L 5324465.587551178,-986831.3667675554 L 5296808.792499358,-1125871.4647572038 L 5265521.829282661,-1264139.9466834427 L 5230626.140422857,-1401542.0502354235 L 5192145.641682015,-1537983.6068747607 L 5150106.705671824,-1673371.106373941 L 5104538.143779136,-1807611.7609035647 L 5055471.186420072,-1940613.5686244874 L 5002939.4616362555,-2072285.3767412852 L 4946978.972047836,-2202536.943973829 L 4887628.070179088,-2331279.002404148 L 4824927.432173509,-2458423.3186562043 L 4758920.0299164215,-2583882.7543666386 L 4689651.101584189,-2707571.325905053 L 4617168.120640229,-2829404.263302897 L 4541520.763299076,-2949298.068350571 L 4462760.874480783,-3067170.571822922 L 4380942.432279,-3182940.989793935 L 4296121.510967091,-3296529.979001993 L 4208356.242567622,-3407859.691227789 L 4117706.7770115817,-3516853.8266476085 L 4024235.2409146214,-3623437.6861254117 L 3928005.694998573,-3727538.2224078956 L 3829084.090187436,-3829084.090187429 L 3727538.2224079017,-3928005.6949985675 L 3623437.6861254177,-4024235.2409146153 L 3516853.826647615,-4117706.777011576 L 3407859.6912277965,-4208356.2425676165 L 3296529.9790020003,-4296121.510967085 L 3182940.989793942,-4380942.432278995 L 3067170.571822929,-4462760.874480778 L 2949298.0683505777,-4541520.763299072 L 2829404.2633029046,-4617168.120640225 L 2707571.32590506,-4689651.101584184 L 2583882.7543666456,-4758920.029916417 L 2458423.318656212,-4824927.4321735045 L 2331279.0024041566,-4887628.070179084 L 2202536.9439738365,-4946978.972047832 L 2072285.3767412931,-5002939.461636252 L 1940613.5686244955,-5055471.186420069 L 1807611.7609035734,-5104538.143779133 L 1673371.10637395,-5150106.705671822 L 1537983.6068747686,-5192145.641682012 L 1401542.0502354316,-5230626.1404228555 L 1264139.946683451,-5265521.829282658 L 1125871.464757213,-5296808.792499356 L 986831.3667675634,-5324465.5875511775 L 847114.9438524592,-5348473.259852281 L 706817.9506691743,-5368815.3557432825 L 566036.539768845,-5385477.933767769 L 424867.1956983143,-5398449.574227075 L 283406.6688744407,-5407721.38700678 L 141751.90927620075,-5413287.017669541 L 8.748404330910315e-09,-5415142.651810111 L -141751.90927618326,-5413287.017669541 L -283406.6688744244,-5407721.38700678 L -424867.1956982969,-5398449.574227076 L -566036.5397688276,-5385477.9337677695 L -706817.9506691569,-5368815.355743284 L -847114.9438524419,-5348473.259852284 L -986831.3667675473,-5324465.587551179 L -1125871.4647571957,-5296808.79249936 L -1264139.946683434,-5265521.829282663 L -1401542.0502354149,-5230626.14042286 L -1537983.606874753,-5192145.641682017 L -1673371.1063739334,-5150106.705671827 L -1807611.7609035568,-5104538.143779139 L -1940613.568624479,-5055471.186420076 L -2072285.3767412768,-5002939.461636258 L -2202536.9439738216,-4946978.972047839 L -2331279.002404141,-4887628.070179092 L -2458423.3186561977,-4824927.432173512 L -2583882.75436663,-4758920.029916425 L -2707571.325905046,-4689651.101584192 L -2829404.263302889,-4617168.120640234 L -2949298.0683505638,-4541520.7632990815 L -3067170.571822916,-4462760.874480788 L -3182940.9897939274,-4380942.432279006 L -3296529.9790019863,-4296121.510967095 L -3407859.691227782,-4208356.242567628 L -3516853.826647602,-4117706.7770115878 L -3623437.6861254056,-4024235.2409146265 L -3727538.222407889,-3928005.694998579 L -3829084.090187424,-3829084.090187441 L -3928005.6949985605,-3727538.2224079086 L -4024235.2409146093,-3623437.686125424 L -4117706.7770115715,-3516853.826647621 L -4208356.24256761,-3407859.6912278035 L -4296121.51096708,-3296529.9790020064 L -4380942.432278989,-3182940.9897939498 L -4462760.874480773,-3067170.5718229366 L -4541520.7632990675,-2949298.0683505847 L -4617168.120640219,-2829404.263302913 L -4689651.10158418,-2707571.3259050674 L -4758920.029916413,-2583882.7543666526 L -4824927.432173501,-2458423.31865622 L -4887628.070179081,-2331279.0024041636 L -4946978.972047829,-2202536.943973846 L -5002939.461636249,-2072285.3767413013 L -5055471.186420066,-1940613.5686245025 L -5104538.143779131,-1807611.7609035815 L -5150106.705671819,-1673371.1063739571 L -5192145.641682009,-1537983.6068747782 L -5230626.140422854,-1401542.05023544 L -5265521.829282657,-1264139.9466834583 L -5296808.792499354,-1125871.4647572213 L -5324465.587551176,-986831.3667675719 L -5348473.259852279,-847114.9438524691 L -5368815.355743282,-706817.9506691829 L -5385477.933767768,-566036.5397688525 L -5398449.574227074,-424867.195698323 L -5407721.387006779,-283406.66887444945 L -5413287.01766954,-141751.9092762083 L -5415142.651810111,-1.749680866182063e-08 L -5413287.017669541,141751.90927617572 L -5407721.387006781,283406.66887441446 L -5398449.574227077,424867.19569828815 L -5385477.93376777,566036.5397688202 L -5368815.355743285,706817.9506691482 L -5348473.259852285,847114.9438524345 L -5324465.587551182,986831.3667675375 L -5296808.792499362,1125871.464757187 L -5265521.829282665,1264139.9466834266 L -5230626.140422862,1401542.0502354065 L -5192145.641682019,1537983.6068747446 L -5150106.70567183,1673371.1063739238 L -5104538.143779142,1807611.7609035484 L -5055471.186420077,1940613.568624472 L -5002939.461636262,2072285.3767412687 L -4946978.972047842,2202536.9439738137 L -4887628.070179096,2331279.002404132 L -4824927.432173517,2458423.318656189 L -4758920.029916429,2583882.7543666237 L -4689651.101584197,2707571.325905037 L -4617168.120640238,2829404.2633028827 L -4541520.763299085,2949298.0683505572 L -4462760.874480793,3067170.571822908 L -4380942.432279009,3182940.989793922 L -4296121.510967102,3296529.9790019784 L -4208356.242567632,3407859.6912277765 L -4117706.7770115924,3516853.8266475964 L -4024235.240914633,3623437.6861253986 L -3928005.6949985847,3727538.222407883 L -3829084.0901874485,3829084.0901874164 L -3727538.222407914,3928005.6949985554 L -3623437.6861254303,4024235.2409146046 L -3516853.8266476286,4117706.777011565 L -3407859.6912278095,4208356.242567605 L -3296529.979002012,4296121.510967076 L -3182940.989793954,4380942.432278986 L -3067170.571822945,4462760.874480767 L -2949298.068350593,4541520.763299063 L -2829404.2633029195,4617168.120640215 L -2707571.325905074,4689651.101584176 L -2583882.754366659,4758920.029916409 L -2458423.318656229,4824927.432173496 L -2331279.0024041724,4887628.070179077 L -2202536.9439738523,4946978.972047825 L -2072285.376741308,5002939.461636246 L -1940613.5686245097,5055471.1864200635 L -1807611.7609035908,5104538.143779127 L -1673371.1063739667,5150106.705671816 L -1537983.6068747854,5192145.641682007 L -1401542.0502354477,5230626.140422852 L -1264139.9466834657,5265521.829282655 L -1125871.464757231,5296808.792499351 L -986831.3667675817,5324465.587551174 L -847114.9438524764,5348473.259852278 L -706817.9506691904,5368815.35574328 L -566036.5397688601,5385477.933767767 L -424867.1956983329,5398449.574227074 L -283406.6688744594,5407721.387006778 L -141751.90927621824,5413287.01766954 L -2.504280978199708e-08,5415142.651810111 L 141751.90927616818,5413287.017669541 L 283406.66887440457,5407721.387006782 L 424867.1956982782,5398449.574227078 L 566036.5397688103,5385477.933767771 L 706817.9506691408,5368815.355743286 L 847114.9438524271,5348473.2598522855 L 986831.3667675278,5324465.587551184 L 1125871.4647571775,5296808.792499363 L 1264139.946683417,5265521.829282667 L 1401542.0502353993,5230626.140422864 L 1537983.6068747374,5192145.641682021 L 1673371.1063739143,5150106.705671833 L 1807611.7609035391,5104538.143779146 L 1940613.5686244627,5055471.186420081 L 2072285.376741262,5002939.461636266 L 2202536.9439738067,4946978.972047846 L 2331279.0024041273,4887628.070179097 L 2458423.31865618,4824927.432173521 L 2583882.7543666153,4758920.029916434 L 2707571.3259050306,4689651.101584201 L 2829404.2633028766,4617168.120640242 L 2949298.068350551,4541520.76329909 L 3067170.5718229,4462760.874480799 L 3182940.989793914,4380942.432279016 L 3296529.9790019724,4296121.510967107 L 3407859.6912277704,4208356.242567637 L 3516853.8266475904,4117706.777011597 L 3623437.686125391,4024235.2409146396 L 3727538.2224078756,3928005.694998591 L 3829084.0901874113,3829084.0901874537 L 3928005.69499855,3727538.22240792 L 4024235.240914599,3623437.686125436 L 4117706.777011558,3516853.826647636 L 4208356.2425676,3407859.691227817 L 4296121.510967069,3296529.979002021 L 4380942.4322789805,3182940.989793962 L 4462760.874480764,3067170.571822949 L 4541520.763299057,2949298.068350601 L 4617168.120640211,2829404.263302928 L 4689651.101584171,2707571.3259050827 L 4758920.029916405,2583882.7543666675 L 4824927.432173494,2458423.3186562336 L 4887628.070179072,2331279.0024041813 L 4946978.972047822,2202536.9439738616 L 5002939.4616362415,2072285.3767413173 L 5055471.18642006,1940613.568624519 L 5104538.143779126,1807611.7609035957 L 5150106.705671812,1673371.106373976 L 5192145.641682005,1537983.6068747947 L 5230626.140422849,1401542.0502354573 L 5265521.8292826535,1264139.9466834753 L 5296808.792499351,1125871.4647572362 L 5324465.587551172,986831.3667675914 L 5348473.259852276,847114.9438524864 L 5368815.355743279,706817.9506692003 L 5385477.933767766,566036.53976887 L 5398449.574227073,424867.19569833804 L 5407721.387006778,283406.6688744645 L 5413287.01766954,141751.9092762282 L 5415142.651810111,0.0 z" /></g></svg>