<svg xmlns="http://www.w3.org/2000/svg" xmlns:xlink="http://www.w3.org/1999/xlink" width="300" height="300" viewBox="-5059129.874959896 -5059129.874959896 10118259.749919793 10118259.749919793" preserveAspectRatio="xMinYMin meet"><g transform="matrix(1,0,0,-1,0,0.0)"><path fill-rule="evenodd" fill="#66cc99" stroke="#555555" stroke-width="67455.06499946528" opacity="0.6" d="M 4684379.513851756,-1868981.4589696417 L 4678324.095895013,-1884231.9387134588 L 4659600.535940625,-1930069.7372275481 L 4640427.873988351,-1975721.5116032243 L 4620807.957939255,-2021182.861827456 L 4600742.678801682,-2066449.406240688 L 4580233.970508999,-2111516.7819591546 L 4559283.809733195,-2156380.645295383 L 4537894.215694372,-2201036.672176848 L 4516067.249966121,-2245480.5585627346 L 4493805.016276829,-2289708.0208587693 L 4471109.660306915,-2333714.796330083 L 4447983.369482022,-2377496.643512064 L 4424428.372762196,-2421049.342619155 L 4400446.940427045,-2464368.6959515675 L 4376041.383856933,-2507450.5282998653 L 4351214.055310197,-2550290.6873473786 L 4325967.347696437,-2592885.0440704124 L 4300303.69434588,-2635229.493136214 L 4274225.568774851,-2677319.9532986474 L 4247735.48444737,-2719152.3677915586 L 4220835.994532899,-2760722.7047197707 L 4193529.691660263,-2802026.957447688 L 4165819.207667768,-2843061.144985465 L 4137707.2133495347,-2883821.3123727 L 4109196.418198087,-2924303.5310596246 L 4080289.5701432023,-2964503.8992857435 L 4050989.4552870607,-3004418.542455897 L 4021298.897635716,-3044043.613513701 L 3991220.758826911,-3083375.293312332 L 3960757.937854267,-3122409.790982629 L 3929913.3707878734,-3161143.3442984624 L 3898690.0304913013,-3199572.220039346 L 3867090.9263350754,-3237692.7143502515 L 3835119.1039066236,-3275501.153098596 L 3802777.6447167345,-3312993.89222836 L 3770069.6659025596,-3350167.318111311 L 3736998.319927173,-3387017.847895292 L 3703566.7942757336,-3423541.929849544 L 3669778.311148265,-3459736.043707029 L 3635636.1271490967,-3495596.70100372 L 3601143.5329729845,-3531120.445414829 L 3566303.8530879463,-3566303.8530879333 L 3531120.445414842,-3601143.5329729724 L 3495596.701003733,-3635636.127149084 L 3459736.0437070415,-3669778.3111482523 L 3423541.9298495576,-3703566.7942757206 L 3387017.847895306,-3736998.319927161 L 3350167.3181113247,-3770069.6659025475 L 3312993.892228374,-3802777.644716723 L 3275501.1530986093,-3835119.1039066114 L 3237692.7143502655,-3867090.9263350638 L 3199572.22003936,-3898690.0304912897 L 3161143.3442984773,-3929913.3707878618 L 3122409.7909826436,-3960757.937854256 L 3083375.293312346,-3991220.7588269 L 3044043.6135137156,-4021298.897635705 L 3004418.542455912,-4050989.45528705 L 2964503.8992857584,-4080289.570143191 L 2924303.531059639,-4109196.4181980765 L 2883821.3123727147,-4137707.2133495244 L 2843061.1449854802,-4165819.2076677573 L 2802026.957447703,-4193529.6916602533 L 2760722.704719786,-4220835.994532889 L 2719152.3677915744,-4247735.48444736 L 2677319.9532986623,-4274225.568774842 L 2635229.4931362285,-4300303.694345872 L 2592885.044070427,-4325967.347696428 L 2550290.687347392,-4351214.055310189 L 2507450.5282998784,-4376041.383856925 L 2464368.6959515805,-4400446.940427038 L 2421049.3426191676,-4424428.372762188 L 2377496.6435120767,-4447983.369482015 L 2333714.7963300957,-4471109.660306908 L 2289708.0208587814,-4493805.016276823 L 2245480.5585627463,-4516067.249966116 L 2201036.67217686,-4537894.215694366 L 2156380.6452953946,-4559283.80973319 L 2111516.781959166,-4580233.970508994 L 2066449.406240699,-4600742.678801677 L 2021182.8618274666,-4620807.95793925 L 1975721.5116032346,-4640427.873988346 L 1930069.7372275584,-4659600.53594062 L 1884231.9387134693,-4678324.095895009 L 1868981.4589696426,-4684379.513851756 L 1864351.7128707655,-4684379.513851756 L 1833018.0706376433,-4684379.513851756 L 1801684.4284045212,-4684379.513851756 L 1770350.786171399,-4684379.513851756 L 1739017.143938277,-4684379.513851756 L 1707683.5017051548,-4684379.513851756 L 1676349.8594720326,-4684379.513851756 L 1645016.2172389105,-4684379.513851756 L 1613682.5750057893,-4684379.513851756 L 1582348.9327726671,-4684379.513851756 L 1551015.290539545,-4684379.513851756 L 1519681.6483064229,-4684379.513851756 L 1488348.0060733007,-4684379.513851756 L 1457014.3638401786,-4684379.513851756 L 1425680.7216070564,-4684379.513851756 L 1394347.0793739343,-4684379.513851756 L 1363013.4371408122,-4684379.513851756 L 1331679.79490769,-4684379.513851756 L 1300346.152674568,-4684379.513851756 L 1269012.5104414457,-4684379.513851756 L 1237678.8682083236,-4684379.513851756 L 1206345.2259752015,-4684379.513851756 L 1175011.5837420793,-4684379.513851756 L 1143677.9415089572,-4684379.513851756 L 1112344.299275835,-4684379.513851756 L 1081010.657042713,-4684379.513851756 L 1049677.0148095908,-4684379.513851756 L 1018343.3725764686,-4684379.513851756 L 987009.7303433465,-4684379.513851756 L 955676.0881102243,-4684379.513851756 L 924342.4458771022,-4684379.513851756 L 893008.8036439801,-4684379.513851756 L 861675.1614108579,-4684379.513851756 L 830341.5191777358,-4684379.513851756 L 799007.8769446136,-4684379.513851756 L 767674.2347114915,-4684379.513851756 L 736340.5924783694,-4684379.513851756 L 705006.9502452472,-4684379.513851756 L 673673.3080121251,-4684379.513851756 L 642339.665779003,-4684379.513851756 L 611006.0235458808,-4684379.513851756 L 579672.3813127587,-4684379.513851756 L 548338.7390796365,-4684379.513851756 L 517005.0968465144,-4684379.513851756 L 485671.45461339224,-4684379.513851756 L 454337.81238027103,-4684379.513851756 L 423004.1701471489,-4684379.513851756 L 391670.52791402675,-4684379.513851756 L 360336.8856809046,-4684379.513851756 L 329003.2434477825,-4684379.513851756 L 297669.60121466033,-4684379.513851756 L 266335.9589815382,-4684379.513851756 L 235002.31674841605,-4684379.513851756 L 203668.6745152939,-4684379.513851756 L 172335.03228217177,-4684379.513851756 L 141001.39004904963,-4684379.513851756 L 109667.74781592749,-4684379.513851756 L 78334.10558280535,-4684379.513851756 L 47000.46334968321,-4684379.513851756 L 15666.82111656107,-4684379.513851756 L -15666.82111656107,-4684379.513851756 L -47000.46334968321,-4684379.513851756 L -78334.10558280535,-4684379.513851756 L -109667.74781592749,-4684379.513851756 L -141001.39004904963,-4684379.513851756 L -172335.03228217177,-4684379.513851756 L -203668.6745152939,-4684379.513851756 L -235002.31674841605,-4684379.513851756 L -266335.9589815382,-4684379.513851756 L -297669.60121466033,-4684379.513851756 L -329003.2434477825,-4684379.513851756 L -360336.8856809046,-4684379.513851756 L -391670.52791402675,-4684379.513851756 L -423004.1701471489,-4684379.513851756 L -454337.81238027103,-4684379.513851756 L -485671.4546133932,-4684379.513851756 L -517005.09684651485,-4684379.513851756 L -548338.739079637,-4684379.513851756 L -579672.3813127591,-4684379.513851756 L -611006.0235458813,-4684379.513851756 L -642339.6657790034,-4684379.513851756 L -673673.3080121255,-4684379.513851756 L -705006.9502452477,-4684379.513851756 L -736340.5924783698,-4684379.513851756 L -767674.234711492,-4684379.513851756 L -799007.8769446141,-4684379.513851756 L -830341.5191777362,-4684379.513851756 L -861675.1614108584,-4684379.513851756 L -893008.8036439805,-4684379.513851756 L -924342.4458771027,-4684379.513851756 L -955676.0881102248,-4684379.513851756 L -987009.7303433465,-4684379.513851756 L -1018343.3725764686,-4684379.513851756 L -1049677.0148095908,-4684379.513851756 L -1081010.657042713,-4684379.513851756 L -1112344.299275835,-4684379.513851756 L -1143677.9415089572,-4684379.513851756 L -1175011.5837420793,-4684379.513851756 L -1206345.2259752015,-4684379.513851756 L -1237678.8682083236,-4684379.513851756 L -1269012.5104414457,-4684379.513851756 L -1300346.152674568,-4684379.513851756 L -1331679.79490769,-4684379.513851756 L -1363013.4371408122,-4684379.513851756 L -1394347.0793739343,-4684379.513851756 L -1425680.7216070564,-4684379.513851756 L -1457014.3638401786,-4684379.513851756 L -1488348.0060733007,-4684379.513851756 L -1519681.6483064229,-4684379.513851756 L -1551015.2905395445,-4684379.513851756 L -1582348.9327726667,-4684379.513851756 L -1613682.5750057888,-4684379.513851756 L -1645016.217238911,-4684379.513851756 L -1676349.859472033,-4684379.513851756 L -1707683.5017051552,-4684379.513851756 L -1739017.1439382774,-4684379.513851756 L -1770350.7861713995,-4684379.513851756 L -1801684.4284045217,-4684379.513851756 L -1833018.0706376438,-4684379.513851756 L -1864351.712870766,-4684379.513851756 L -1868981.4589696433,-4684379.513851756 L -1884231.9387134707,-4678324.095895009 L -1930069.7372275598,-4659600.53594062 L -1975721.5116032364,-4640427.873988345 L -2021182.8618274683,-4620807.957939249 L -2066449.4062407005,-4600742.678801676 L -2111516.7819591663,-4580233.970508994 L -2156380.645295395,-4559283.80973319 L -2201036.6721768603,-4537894.215694366 L -2245480.5585627467,-4516067.249966115 L -2289708.0208587814,-4493805.016276822 L -2333714.796330096,-4471109.660306908 L -2377496.643512077,-4447983.369482015 L -2421049.342619168,-4424428.372762188 L -2464368.695951581,-4400446.940427038 L -2507450.528299879,-4376041.383856925 L -2550290.6873473926,-4351214.055310189 L -2592885.044070428,-4325967.347696428 L -2635229.493136229,-4300303.694345871 L -2677319.9532986633,-4274225.568774842 L -2719152.3677915744,-4247735.48444736 L -2760722.704719787,-4220835.994532889 L -2802026.957447705,-4193529.6916602524 L -2843061.1449854816,-4165819.2076677564 L -2883821.312372717,-4137707.2133495226 L -2924303.531059642,-4109196.418198074 L -2964503.899285761,-4080289.570143189 L -3004418.5424559154,-4050989.455287047 L -3044043.6135137193,-4021298.897635702 L -3083375.2933123508,-3991220.7588268965 L -3122409.7909826483,-3960757.937854252 L -3161143.344298482,-3929913.370787858 L -3199572.220039366,-3898690.030491285 L -3237692.7143502715,-3867090.926335059 L -3275501.1530986163,-3835119.103906606 L -3312993.892228381,-3802777.644716717 L -3350167.318111332,-3770069.665902541 L -3387017.8478953135,-3736998.319927154 L -3423541.9298495655,-3703566.794275714 L -3459736.04370705,-3669778.311148245 L -3495596.7010037415,-3635636.1271490757 L -3531120.445414851,-3601143.532972963 L -3566303.853087955,-3566303.8530879244 L -3601143.5329729943,-3531120.4454148198 L -3635636.1271491065,-3495596.70100371 L -3669778.3111482747,-3459736.0437070183 L -3703566.794275744,-3423541.929849533 L -3736998.319927184,-3387017.847895281 L -3770069.665902571,-3350167.318111299 L -3802777.6447167457,-3312993.8922283472 L -3835119.1039066347,-3275501.1530985828 L -3867090.926335087,-3237692.714350238 L -3898690.0304913134,-3199572.220039332 L -3929913.3707878855,-3161143.344298448 L -3960757.9378542793,-3122409.790982614 L -3991220.7588269236,-3083375.293312316 L -4021298.8976357286,-3044043.6135136844 L -4050989.455287073,-3004418.54245588 L -4080289.5701432144,-2964503.899285726 L -4109196.4181981,-2924303.531059606 L -4137707.213349548,-2883821.312372681 L -4165819.207667781,-2843061.144985446 L -4193529.6916602766,-2802026.9574476685 L -4220835.994532913,-2760722.70471975 L -4247735.484447383,-2719152.367791537 L -4274225.568774865,-2677319.953298626 L -4300303.694345894,-2635229.4931361913 L -4325967.347696451,-2592885.0440703896 L -4351214.055310211,-2550290.6873473544 L -4376041.383856947,-2507450.5282998406 L -4400446.940427059,-2464368.6959515424 L -4424428.37276221,-2421049.3426191295 L -4447983.369482036,-2377496.6435120385 L -4471109.660306928,-2333714.7963300576 L -4493805.016276843,-2289708.0208587428 L -4516067.249966134,-2245480.5585627076 L -4537894.215694386,-2201036.6721768207 L -4559283.809733208,-2156380.6452953555 L -4580233.970509012,-2111516.7819591262 L -4600742.678801695,-2066449.4062406593 L -4620807.957939268,-2021182.861827427 L -4640427.873988363,-1975721.511603195 L -4659600.535940637,-1930069.7372275183 L -4678324.095895026,-1884231.938713429 L -4684379.513851756,-1868981.4589696438 L -4684379.513851756,-1864351.712870766 L -4684379.513851756,-1833018.0706376438 L -4684379.513851756,-1801684.4284045217 L -4684379.513851756,-1770350.7861713995 L -4684379.513851756,-1739017.1439382774 L -4684379.513851756,-1707683.5017051552 L -4684379.513851756,-1676349.859472033 L -4684379.513851756,-1645016.217238911 L -4684379.513851756,-1613682.5750057888 L -4684379.513851756,-1582348.9327726667 L -4684379.513851756,-1551015.2905395445 L -4684379.513851756,-1519681.6483064229 L -4684379.513851756,-1488348.0060733007 L -4684379.513851756,-1457014.3638401786 L -4684379.513851756,-1425680.7216070564 L -4684379.513851756,-1394347.0793739343 L -4684379.513851756,-1363013.4371408122 L -4684379.513851756,-1331679.79490769 L -4684379.513851756,-1300346.152674568 L -4684379.513851756,-1269012.5104414457 L -4684379.513851756,-1237678.8682083236 L -4684379.513851756,-1206345.2259752015 L -4684379.513851756,-1175011.5837420793 L -4684379.513851756,-1143677.9415089572 L -4684379.513851756,-1112344.299275835 L -4684379.513851756,-1081010.657042713 L -4684379.513851756,-1049677.0148095908 L -4684379.513851756,-1018343.3725764686 L -4684379.513851756,-987009.7303433465 L -4684379.513851756,-955676.0881102248 L -4684379.513851756,-924342.4458771027 L -4684379.513851756,-893008.8036439805 L -4684379.513851756,-861675.1614108584 L -4684379.513851756,-830341.5191777362 L -4684379.513851756,-799007.8769446141 L -4684379.513851756,-767674.234711492 L -4684379.513851756,-736340.5924783698 L -4684379.513851756,-705006.9502452477 L -4684379.513851756,-673673.3080121255 L -4684379.513851756,-642339.6657790034 L -4684379.513851756,-611006.0235458813 L -4684379.513851756,-579672.3813127591 L -4684379.513851756,-548338.739079637 L -4684379.513851756,-517005.09684651485 L -4684379.513851756,-485671.4546133932 L -4684379.513851756,-454337.81238027103 L -4684379.513851756,-423004.1701471489 L -4684379.513851756,-391670.52791402675 L -4684379.513851756,-360336.8856809046 L -4684379.513851756,-329003.2434477825 L -4684379.513851756,-297669.60121466033 L -4684379.513851756,-266335.9589815382 L -4684379.513851756,-235002.31674841605 L -4684379.513851756,-203668.6745152939 L -4684379.513851756,-172335.03228217177 L -4684379.513851756,-141001.39004904963 L -4684379.513851756,-109667.74781592749 L -4684379.513851756,-78334.10558280535 L -4684379.513851756,-47000.46334968321 L -4684379.513851756,-15666.82111656107 L -4684379.513851756,15666.82111656107 L -4684379.513851756,47000.46334968321 L -4684379.513851756,78334.10558280535 L -4684379.513851756,109667.74781592749 L -4684379.513851756,141001.39004904963 L -4684379.513851756,172335.03228217177 L -4684379.513851756,203668.6745152939 L -4684379.513851756,235002.31674841605 L -4684379.513851756,266335.9589815382 L -4684379.513851756,297669.60121466033 L -4684379.513851756,329003.2434477825 L -4684379.513851756,360336.8856809046 L -4684379.513851756,391670.52791402675 L -4684379.513851756,423004.1701471489 L -4684379.513851756,454337.81238027103 L -4684379.513851756,485671.45461339224 L -4684379.513851756,517005.0968465144 L -4684379.513851756,548338.7390796365 L -4684379.513851756,579672.3813127587 L -4684379.513851756,611006.0235458808 L -4684379.513851756,642339.665779003 L -4684379.513851756,673673.3080121251 L -4684379.513851756,705006.9502452472 L -4684379.513851756,736340.5924783694 L -4684379.513851756,767674.2347114915 L -4684379.513851756,799007.8769446136 L -4684379.513851756,830341.5191777358 L -4684379.513851756,861675.1614108579 L -4684379.513851756,893008.8036439801 L -4684379.513851756,924342.4458771022 L -4684379.513851756,955676.0881102243 L -4684379.513851756,987009.7303433465 L -4684379.513851756,1018343.3725764686 L -4684379.513851756,1049677.0148095908 L -4684379.513851756,1081010.657042713 L -4684379.513851756,1112344.299275835 L -4684379.513851756,1143677.9415089572 L -4684379.513851756,1175011.5837420793 L -4684379.513851756,1206345.2259752015 L -4684379.513851756,1237678.8682083236 L -4684379.513851756,1269012.5104414457 L -4684379.513851756,1300346.152674568 L -4684379.513851756,1331679.79490769 L -4684379.513851756,1363013.4371408122 L -4684379.513851756,1394347.0793739343 L -4684379.513851756,1425680.7216070564 L -4684379.513851756,1457014.3638401786 L -4684379.513851756,1488348.0060733007 L -4684379.513851756,1519681.6483064229 L -4684379.513851756,1551015.290539545 L -4684379.513851756,1582348.9327726671 L -4684379.513851756,1613682.5750057893 L -4684379.513851756,1645016.2172389105 L -4684379.513851756,1676349.8594720326 L -4684379.513851756,1707683.5017051548 L -4684379.513851756,1739017.143938277 L -4684379.513851756,1770350.786171399 L -4684379.513851756,1801684.4284045212 L -4684379.513851756,1833018.0706376433 L -4684379.513851756,1864351.7128707655 L -4684379.513851756,1868981.4589696422 L -4678324.095894992,1884231.938713511 L -4659600.535940603,1930069.7372275998 L -4640427.8739883285,1975721.511603276 L -4620807.957939233,2021182.861827508 L -4600742.6788016595,2066449.4062407399 L -4580233.970508975,2111516.7819592063 L -4559283.809733171,2156380.645295435 L -4537894.215694346,2201036.6721769003 L -4516067.249966095,2245480.558562787 L -4493805.016276803,2289708.0208588215 L -4471109.660306887,2333714.7963301353 L -4447983.369481994,2377496.6435121163 L -4424428.372762168,2421049.342619207 L -4400446.940427016,2464368.6959516197 L -4376041.383856903,2507450.5282999175 L -4351214.0553101655,2550290.687347431 L -4325967.347696406,2592885.0440704655 L -4300303.694345848,2635229.493136267 L -4274225.5687748175,2677319.9532987005 L -4247735.484447336,2719152.3677916117 L -4220835.994532864,2760722.7047198243 L -4193529.6916602277,2802026.9574477416 L -4165819.207667731,2843061.144985519 L -4137707.213349497,2883821.3123727534 L -4109196.4181980486,2924303.531059678 L -4080289.5701431627,2964503.899285797 L -4050989.45528702,3004418.542455951 L -4021298.897635675,3044043.6135137547 L -3991220.758826869,3083375.293312386 L -3960757.9378542244,3122409.790982683 L -3929913.37078783,3161143.344298517 L -3898690.030491257,3199572.2200394 L -3867090.9263350307,3237692.714350306 L -3835119.1039065775,3275501.15309865 L -3802777.6447166875,3312993.892228414 L -3770069.6659025117,3350167.318111365 L -3736998.3199271243,3387017.8478953466 L -3703566.794275684,3423541.9298495976 L -3669778.311148214,3459736.0437070825 L -3635636.127149045,3495596.7010037736 L -3601143.5329729323,3531120.445414883 L -3566303.853087893,3566303.853087987 L -3531120.4454147876,3601143.5329730255 L -3495596.7010036777,3635636.127149137 L -3459736.0437069857,3669778.3111483054 L -3423541.9298495003,3703566.794275774 L -3387017.847895248,3736998.3199272137 L -3350167.318111266,3770069.6659025997 L -3312993.892228314,3802777.644716775 L -3275501.1530985488,3835119.1039066636 L -3237692.7143502054,3867090.926335114 L -3199572.220039301,3898690.0304913386 L -3161143.344298418,3929913.370787909 L -3122409.790982586,3960757.937854301 L -3083375.2933122898,3991220.7588269436 L -3044043.6135136597,4021298.897635747 L -3004418.542455857,4050989.45528709 L -2964503.8992857044,4080289.5701432303 L -2924303.5310595864,4109196.4181981143 L -2883821.3123726626,4137707.2133495603 L -2843061.144985429,4165819.207667792 L -2802026.957447653,4193529.691660287 L -2760722.7047197376,4220835.994532921 L -2719152.367791527,4247735.484447391 L -2677319.9532986167,4274225.568774871 L -2635229.4931361843,4300303.694345898 L -2592885.0440703845,4325967.347696454 L -2550290.687347351,4351214.055310213 L -2507450.5282998392,4376041.3838569475 L -2464368.695951543,4400446.940427059 L -2421049.342619132,4424428.372762208 L -2377496.6435120427,4447983.369482033 L -2333714.7963300636,4471109.660306925 L -2289708.0208587507,4493805.016276838 L -2245480.558562718,4516067.24996613 L -2201036.6721768333,4537894.215694379 L -2156380.64529537,4559283.809733202 L -2111516.781959143,4580233.970509005 L -2066449.406240678,4600742.6788016865 L -2021182.8618274478,4620807.957939259 L -1975721.5116032178,4640427.873988354 L -1930069.7372275433,4659600.535940627 L -1884231.938713456,4678324.095895015 L -1868981.4589696426,4684379.513851756 L -1864351.712870766,4684379.513851756 L -1833018.0706376438,4684379.513851756 L -1801684.4284045217,4684379.513851756 L -1770350.7861713995,4684379.513851756 L -1739017.1439382774,4684379.513851756 L -1707683.5017051552,4684379.513851756 L -1676349.859472033,4684379.513851756 L -1645016.217238911,4684379.513851756 L -1613682.5750057888,4684379.513851756 L -1582348.9327726667,4684379.513851756 L -1551015.2905395445,4684379.513851756 L -1519681.6483064229,4684379.513851756 L -1488348.0060733007,4684379.513851756 L -1457014.3638401786,4684379.513851756 L -1425680.7216070564,4684379.513851756 L -1394347.0793739343,4684379.513851756 L -1363013.4371408122,4684379.513851756 L -1331679.79490769,4684379.513851756 L -1300346.152674568,4684379.513851756 L -1269012.5104414457,4684379.513851756 L -1237678.8682083236,4684379.513851756 L -1206345.2259752015,4684379.513851756 L -1175011.5837420793,4684379.513851756 L -1143677.9415089572,4684379.513851756 L -1112344.299275835,4684379.513851756 L -1081010.657042713,4684379.513851756 L -1049677.0148095908,4684379.513851756 L -1018343.3725764686,4684379.513851756 L -987009.7303433465,4684379.513851756 L -955676.0881102248,4684379.513851756 L -924342.4458771027,4684379.513851756 L -893008.8036439805,4684379.513851756 L -861675.1614108584,4684379.513851756 L -830341.5191777362,4684379.513851756 L -799007.8769446141,4684379.513851756 L -767674.234711492,4684379.513851756 L -736340.5924783698,4684379.513851756 L -705006.9502452477,4684379.513851756 L -673673.3080121255,4684379.513851756 L -642339.6657790034,4684379.513851756 L -611006.0235458813,4684379.513851756 L -579672.3813127591,4684379.513851756 L -548338.739079637,4684379.513851756 L -517005.09684651485,4684379.513851756 L -485671.4546133932,4684379.513851756 L -454337.81238027103,4684379.513851756 L -423004.1701471489,4684379.513851756 L -391670.52791402675,4684379.513851756 L -360336.8856809046,4684379.513851756 L -329003.2434477825,4684379.513851756 L -297669.60121466033,4684379.513851756 L -266335.9589815382,4684379.513851756 L -235002.31674841605,4684379.513851756 L -203668.6745152939,4684379.513851756 L -172335.03228217177,4684379.513851756 L -141001.39004904963,4684379.513851756 L -109667.74781592749,4684379.513851756 L -78334.10558280535,4684379.513851756 L -47000.46334968321,4684379.513851756 L -15666.82111656107,4684379.513851756 L 15666.82111656107,4684379.513851756 L 47000.46334968321,4684379.513851756 L 78334.10558280535,4684379.513851756 L 109667.74781592749,4684379.513851756 L 141001.39004904963,4684379.513851756 L 172335.03228217177,4684379.513851756 L 203668.6745152939,4684379.513851756 L 235002.31674841605,4684379.513851756 L 266335.9589815382,4684379.513851756 L 297669.60121466033,4684379.513851756 L 329003.2434477825,4684379.513851756 L 360336.8856809046,4684379.513851756 L 391670.52791402675,4684379.513851756 L 423004.1701471489,4684379.513851756 L 454337.81238027103,4684379.513851756 L 485671.45461339224,4684379.513851756 L 517005.0968465144,4684379.513851756 L 548338.7390796365,4684379.513851756 L 579672.3813127587,4684379.513851756 L 611006.0235458808,4684379.513851756 L 642339.665779003,4684379.513851756 L 673673.3080121251,4684379.513851756 L 705006.9502452472,4684379.513851756 L 736340.5924783694,4684379.513851756 L 767674.2347114915,4684379.513851756 L 799007.8769446136,4684379.513851756 L 830341.5191777358,4684379.513851756 L 861675.1614108579,4684379.513851756 L 893008.8036439801,4684379.513851756 L 924342.4458771022,4684379.513851756 L 955676.0881102243,4684379.513851756 L 987009.7303433465,4684379.513851756 L 1018343.3725764686,4684379.513851756 L 1049677.0148095908,4684379.513851756 L 1081010.657042713,4684379.513851756 L 1112344.299275835,4684379.513851756 L 1143677.9415089572,4684379.513851756 L 1175011.5837420793,4684379.513851756 L 1206345.2259752015,4684379.513851756 L 1237678.8682083236,4684379.513851756 L 1269012.5104414457,4684379.513851756 L 1300346.152674568,4684379.513851756 L 1331679.79490769,4684379.513851756 L 1363013.4371408122,4684379.513851756 L 1394347.0793739343,4684379.513851756 L 1425680.7216070564,4684379.513851756 L 1457014.3638401786,4684379.513851756 L 1488348.0060733007,4684379.513851756 L 1519681.6483064229,4684379.513851756 L 1551015.290539545,4684379.513851756 L 1582348.9327726671,4684379.513851756 L 1613682.5750057893,4684379.513851756 L 1645016.2172389105,4684379.513851756 L 1676349.8594720326,4684379.513851756 L 1707683.5017051548,4684379.513851756 L 1739017.143938277,4684379.513851756 L 1770350.786171399,4684379.513851756 L 1801684.4284045212,4684379.513851756 L 1833018.0706376433,4684379.513851756 L 1864351.7128707655,4684379.513851756 L 1868981.458969643,4684379.513851756 L 1884231.9387133215,4678324.095895069 L 1930069.7372274091,4659600.535940682 L 1975721.5116030844,4640427.87398841 L 2021182.8618273148,4620807.9579393165 L 2066449.4062405457,4600742.678801746 L 2111516.781959011,4580233.970509065 L 2156380.6452952386,4559283.809733264 L 2201036.672176703,4537894.215694442 L 2245480.558562588,4516067.249966194 L 2289708.020858621,4493805.016276904 L 2333714.7963299346,4471109.660306992 L 2377496.6435119146,4447983.369482102 L 2421049.342619004,4424428.372762279 L 2464368.695951416,4400446.94042713 L 2507450.528299713,4376041.38385702 L 2550290.6873472254,4351214.055310287 L 2592885.0440702597,4325967.347696529 L 2635229.4931360604,4300303.694345974 L 2677319.9532984933,4274225.568774948 L 2719152.367791404,4247735.484447469 L 2760722.704719616,4220835.9945330005 L 2802026.957447533,4193529.6916603674 L 2843061.1449853093,4165819.207667874 L 2883821.3123725443,4137707.2133496436 L 2924303.531059468,4109196.418198198 L 2964503.899285587,4080289.570143316 L 3004418.5424557407,4050989.455287177 L 3044043.6135135437,4021298.8976358348 L 3083375.2933121747,3991220.7588270325 L 3122409.790982472,3960757.9378543915 L 3161143.344298305,3929913.370788 L 3199572.2200391884,3898690.030491431 L 3237692.714350094,3867090.9263352077 L 3275501.153098439,3835119.1039067577 L 3312993.8922282024,3802777.644716872 L 3350167.318111154,3770069.6659026993 L 3387017.847895135,3736998.319927315 L 3423541.929849387,3703566.7942758785 L 3459736.043706872,3669778.3111484125 L 3495596.7010035636,3635636.127149247 L 3531120.445414673,3601143.532973138 L 3566303.8530877777,3566303.853088102 L 3601143.5329728164,3531120.4454150014 L 3635636.127148929,3495596.7010038947 L 3669778.3111480977,3459736.043707206 L 3703566.794275567,3423541.9298497243 L 3736998.3199270074,3387017.847895475 L 3770069.6659023943,3350167.318111497 L 3802777.64471657,3312993.8922285484 L 3835119.10390646,3275501.1530987876 L 3867090.9263349124,3237692.7143504466 L 3898690.0304911393,3199572.220039543 L 3929913.3707877123,3161143.344298663 L 3960757.937854107,3122409.790982832 L 3991220.758826752,3083375.2933125384 L 4021298.8976355577,3044043.6135139097 L 4050989.4552869033,3004418.542456109 L 4080289.570143046,2964503.899285958 L 4109196.418197932,2924303.531059842 L 4137707.213349381,2883821.3123729206 L 4165819.2076676153,2843061.1449856884 L 4193529.6916601122,2802026.957447915 L 4220835.994532749,2760722.7047200003 L 4247735.484447221,2719152.367791791 L 4274225.568774704,2677319.9532988826 L 4300303.694345734,2635229.493136452 L 4325967.347696293,2592885.044070653 L 4351214.055310054,2550290.687347622 L 4376041.383856792,2507450.5283001116 L 4400446.940426906,2464368.6959518166 L 4424428.372762058,2421049.3426194075 L 4447983.369481886,2377496.64351232 L 4471109.66030678,2333714.7963303416 L 4493805.016276696,2289708.0208590305 L 4516067.249965989,2245480.5585629987 L 4537894.215694242,2201036.6721771155 L 4559283.809733068,2156380.6452956535 L 4580233.9705088725,2111516.781959428 L 4600742.678801559,2066449.4062409645 L 4620807.957939133,2021182.8618277353 L 4640427.873988231,1975721.5116035065 L 4659600.5359405065,1930069.7372278334 L 4678324.095894897,1884231.9387137473 L 4684379.513851756,1868981.458969642 L 4684379.513851756,1864351.7128707655 L 4684379.513851756,1833018.0706376433 L 4684379.513851756,1801684.4284045212 L 4684379.513851756,1770350.786171399 L 4684379.513851756,1739017.143938277 L 4684379.513851756,1707683.5017051548 L 4684379.513851756,1676349.8594720326 L 4684379.513851756,1645016.2172389105 L 4684379.513851756,1613682.5750057893 L 4684379.513851756,1582348.9327726671 L 4684379.513851756,1551015.290539545 L 4684379.513851756,1519681.6483064229 L 4684379.513851756,1488348.0060733007 L 4684379.513851756,1457014.3638401786 L 4684379.513851756,1425680.7216070564 L 4684379.513851756,1394347.0793739343 L 4684379.513851756,1363013.4371408122 L 4684379.513851756,1331679.79490769 L 4684379.513851756,1300346.152674568 L 4684379.513851756,1269012.5104414457 L 4684379.513851756,1237678.8682083236 L 4684379.513851756,1206345.2259752015 L 4684379.513851756,1175011.5837420793 L 4684379.513851756,1143677.9415089572 L 4684379.513851756,1112344.299275835 L 4684379.513851756,1081010.657042713 L 4684379.513851756,1049677.0148095908 L 4684379.513851756,1018343.3725764686 L 4684379.513851756,987009.7303433465 L 4684379.513851756,955676.0881102243 L 4684379.513851756,924342.4458771022 L 4684379.513851756,893008.8036439801 L 4684379.513851756,861675.1614108579 L 4684379.513851756,830341.5191777358 L 4684379.513851756,799007.8769446136 L 4684379.513851756,767674.2347114915 L 4684379.513851756,736340.5924783694 L 4684379.513851756,705006.9502452472 L 4684379.513851756,673673.3080121251 L 4684379.513851756,642339.665779003 L 4684379.513851756,611006.0235458808 L 4684379.513851756,579672.3813127587 L 4684379.513851756,548338.7390796365 L 4684379.513851756,517005.0968465144 L 4684379.513851756,485671.45461339224 L 4684379.513851756,454337.81238027103 L 4684379.513851756,423004.1701471489 L 4684379.513851756,391670.52791402675 L 4684379.513851756,360336.8856809046 L 4684379.513851756,329003.2434477825 L 4684379.513851756,297669.60121466033 L 4684379.513851756,266335.9589815382 L 4684379.513851756,235002.31674841605 L 4684379.513851756,203668.6745152939 L 4684379.513851756,172335.03228217177 L 4684379.513851756,141001.39004904963 L 4684379.513851756,109667.74781592749 L 4684379.513851756,78334.10558280535 L 4684379.513851756,47000.46334968321 L 4684379.513851756,15666.82111656107 L 4684379.513851756,-15666.82111656107 L 4684379.513851756,-47000.46334968321 L 4684379.513851756,-78334.10558280535 L 4684379.513851756,-109667.74781592749 L 4684379.513851756,-141001.39004904963 L 4684379.513851756,-172335.03228217177 L 4684379.513851756,-203668.6745152939 L 4684379.513851756,-235002.31674841605 L 4684379.513851756,-266335.9589815382 L 4684379.513851756,-297669.60121466033 L 4684379.513851756,-329003.2434477825 L 4684379.513851756,-360336.8856809046 L 4684379.513851756,-391670.52791402675 L 4684379.513851756,-423004.1701471489 L 4684379.513851756,-454337.81238027103 L 4684379.513851756,-485671.4546133932 L 4684379.513851756,-517005.09684651485 L 4684379.513851756,-548338.739079637 L 4684379.513851756,-579672.3813127591 L 4684379.513851756,-611006.0235458813 L 4684379.513851756,-642339.6657790034 L 4684379.513851756,-673673.3080121255 L 4684379.513851756,-705006.9502452477 L 4684379.513851756,-736340.5924783698 L 4684379.513851756,-767674.234711492 L 4684379.513851756,-799007.8769446141 L 4684379.513851756,-830341.5191777362 L 4684379.513851756,-861675.1614108584 L 4684379.513851756,-893008.8036439805 L 4684379.513851756,-924342.4458771027 L 4684379.513851756,-955676.0881102248 L 4684379.513851756,-987009.7303433465 L 4684379.513851756,-1018343.3725764686 L 4684379.513851756,-1049677.0148095908 L 4684379.513851756,-1081010.657042713 L 4684379.513851756,-1112344.299275835 L 4684379.513851756,-1143677.9415089572 L 4684379.513851756,-1175011.5837420793 L 4684379.513851756,-1206345.2259752015 L 4684379.513851756,-1237678.8682083236 L 4684379.513851756,-1269012.5104414457 L 4684379.513851756,-1300346.152674568 L 4684379.513851756,-1331679.79490769 L 4684379.513851756,-1363013.4371408122 L 4684379.513851756,-1394347.0793739343 L 4684379.513851756,-1425680.7216070564 L 4684379.513851756,-1457014.3638401786 L 4684379.513851756,-1488348.0060733007 L 4684379.513851756,-1519681.6483064229 L 4684379.513851756,-1551015.2905395445 L 4684379.513851756,-1582348.9327726667 L 4684379.513851756,-1613682.5750057888 L 4684379.513851756,-1645016.217238911 L 4684379.513851756,-1676349.859472033 L 4684379.513851756,-1707683.5017051552 L 4684379.513851756,-1739017.1439382774 L 4684379.513851756,-1770350.7861713995 L 4684379.513851756,-1801684.4284045217 L 4684379.513851756,-1833018.0706376438 L 4684379.513851756,-1864351.712870766 L 4684379.513851756,-1868981.4589696417 z" /></g></svg>